<svg width="780" height="440" viewBox="0 0 780 440" fill="none" xmlns="http://www.w3.org/2000/svg">
<g clip-path="url(#clip0_30_9297)">
<path opacity="0.1" d="M780.1 0H0.0999756V50H780.1V0Z" fill="#D10F2F"/>
<path opacity="0.1" d="M780.1 390.3H0.0999756V440.3H780.1V390.3Z" fill="#D10F2F"/>
<path opacity="0.1" d="M779.892 439.98L779.892 -0.620117L729.892 -0.620117L729.892 439.98H779.892Z" fill="#D10F2F"/>
<path opacity="0.1" d="M50.1107 439.961L50.1107 -0.638672L0.110718 -0.638672L0.110718 439.961H50.1107Z" fill="#D10F2F"/>
<path d="M785.5 -4.09961H-5.30005V445.4H785.5V-4.09961Z" fill="#FFD6D0"/>
<path d="M174.9 262.2C209.473 262.2 237.5 234.173 237.5 199.6C237.5 165.027 209.473 137 174.9 137C140.327 137 112.3 165.027 112.3 199.6C112.3 234.173 140.327 262.2 174.9 262.2Z" fill="#EEB8B8" stroke="#162020" stroke-miterlimit="10"/>
<path d="M606.8 262.2C641.373 262.2 669.4 234.173 669.4 199.6C669.4 165.027 641.373 137 606.8 137C572.227 137 544.2 165.027 544.2 199.6C544.2 234.173 572.227 262.2 606.8 262.2Z" fill="#EAEAF9" stroke="#162020" stroke-miterlimit="10"/>
<path d="M306.6 188.2C341.173 188.2 369.2 160.173 369.2 125.6C369.2 91.027 341.173 63 306.6 63C272.027 63 244 91.027 244 125.6C244 160.173 272.027 188.2 306.6 188.2Z" fill="#D0FFF6" stroke="#162020" stroke-miterlimit="10"/>
<path d="M470 188.3C504.573 188.3 532.6 160.273 532.6 125.7C532.6 91.1266 504.573 63.0996 470 63.0996C435.427 63.0996 407.4 91.1266 407.4 125.7C407.4 160.273 435.427 188.3 470 188.3Z" fill="#FFE99A" stroke="#162020" stroke-miterlimit="10"/>
<path d="M570 237.4H210.3V375.1H570V237.4Z" fill="#C1C1F7" stroke="#162020" stroke-miterlimit="10"/>
<path d="M444 237.4H329.4V375.1H444V237.4Z" fill="#483A9C" stroke="#162020" stroke-miterlimit="10" stroke-linecap="round" stroke-linejoin="round"/>
<path d="M457.5 246.2H318.8V256.6H457.5V246.2Z" fill="#D8D7F9" stroke="#162020" stroke-miterlimit="10"/>
<path d="M332.4 300H205V310.4H332.4V300Z" fill="#D8D7F9" stroke="#162020" stroke-miterlimit="10"/>
<path d="M575.4 300H444.9V310.4H575.4V300Z" fill="#D8D7F9" stroke="#162020" stroke-miterlimit="10"/>
<path d="M332.4 226.9H205V237.3H332.4V226.9Z" fill="#D8D7F9" stroke="#162020" stroke-miterlimit="10"/>
<path d="M575.4 226.9H444.9V237.3H575.4V226.9Z" fill="#D8D7F9" stroke="#162020" stroke-miterlimit="10"/>
<path d="M452.4 226.6H324V245.9H452.4V226.6Z" fill="#C1C1F7" stroke="#162020" stroke-miterlimit="10"/>
<path d="M325.007 256.655V364.455H342.807V256.655H325.007Z" fill="#C1C1F7" stroke="#162020" stroke-miterlimit="10"/>
<path d="M361.58 256.629V364.429H379.38V256.629H361.58Z" fill="#C1C1F7" stroke="#162020" stroke-miterlimit="10"/>
<path d="M398.153 256.601V364.401H415.953V256.601H398.153Z" fill="#C1C1F7" stroke="#162020" stroke-miterlimit="10"/>
<path d="M434.726 256.574V364.374H452.526V256.574H434.726Z" fill="#C1C1F7" stroke="#162020" stroke-miterlimit="10"/>
<path d="M322.076 364.295V380.195H345.576V364.295H322.076Z" fill="#D8D7F9" stroke="#162020" stroke-miterlimit="10"/>
<path d="M359.188 364.308V380.208H382.688V364.308H359.188Z" fill="#D8D7F9" stroke="#162020" stroke-miterlimit="10"/>
<path d="M395.437 364.256V380.156H418.937V364.256H395.437Z" fill="#D8D7F9" stroke="#162020" stroke-miterlimit="10"/>
<path d="M431.901 364.321V380.221H455.401V364.321H431.901Z" fill="#D8D7F9" stroke="#162020" stroke-miterlimit="10"/>
<path d="M387.9 195.8L316.3 226.9H459.5L387.9 195.8Z" fill="#D8D7F9" stroke="#162020" stroke-miterlimit="10"/>
<path d="M255.9 287H229.3V267.3C229.3 260.1 235.1 254.3 242.3 254.3H242.9C250.1 254.3 255.9 260.1 255.9 267.3V287Z" fill="#9180F4" stroke="#162020" stroke-miterlimit="10"/>
<path d="M303.5 287H276.9V267.3C276.9 260.1 282.7 254.3 289.9 254.3H290.5C297.7 254.3 303.5 260.1 303.5 267.3V287Z" fill="#9180F4" stroke="#162020" stroke-miterlimit="10"/>
<path d="M500.3 287H473.7V267.3C473.7 260.1 479.5 254.3 486.7 254.3H487.3C494.5 254.3 500.3 260.1 500.3 267.3V287Z" fill="#9180F4" stroke="#162020" stroke-miterlimit="10"/>
<path d="M547.9 287H521.3V267.3C521.3 260.1 527.1 254.3 534.3 254.3H534.9C542.1 254.3 547.9 260.1 547.9 267.3V287Z" fill="#9180F4" stroke="#162020" stroke-miterlimit="10"/>
<path d="M248.3 322.1H230.7V364.1H248.3V322.1Z" fill="#9180F4" stroke="#162020" stroke-miterlimit="10"/>
<path d="M276.4 322.1H258.8V364.1H276.4V322.1Z" fill="#9180F4" stroke="#162020" stroke-miterlimit="10"/>
<path d="M304.5 322.1H286.9V364.1H304.5V322.1Z" fill="#9180F4" stroke="#162020" stroke-miterlimit="10"/>
<path d="M492.4 322.1H474.8V364.1H492.4V322.1Z" fill="#9180F4" stroke="#162020" stroke-miterlimit="10"/>
<path d="M520.5 322.1H502.9V364.1H520.5V322.1Z" fill="#9180F4" stroke="#162020" stroke-miterlimit="10"/>
<path d="M548.6 322.1H531V364.1H548.6V322.1Z" fill="#9180F4" stroke="#162020" stroke-miterlimit="10"/>
<path d="M387.9 195.8V170.6" stroke="#162020" stroke-miterlimit="10" stroke-linecap="round" stroke-linejoin="round"/>
<path d="M388.1 172.9C388.1 172.9 393.7 170.3 399.4 172.9C405.1 175.5 410.4 172.1 410.4 172.1V185.2C410.4 185.2 404.5 189.5 399.4 185.2C394.3 180.9 387.9 185.4 387.9 185.4L388.1 172.9Z" fill="#B1F0E4" stroke="#162020" stroke-miterlimit="10" stroke-linecap="round" stroke-linejoin="round"/>
<path d="M212.3 375.1H123.3" stroke="#162020" stroke-miterlimit="10"/>
<path d="M656.3 375.1H564.4" stroke="#162020" stroke-miterlimit="10"/>
<path d="M585.789 142H547.462C542.236 142 538 146.236 538 151.462V154.166C538 159.392 542.236 163.628 547.462 163.628H563.431L566.626 169.161L569.82 163.628H585.789C591.015 163.628 595.252 159.392 595.252 154.166V151.462C595.252 146.236 591.015 142 585.789 142Z" fill="#3896E3"/>
<path d="M585.789 142.436C590.766 142.436 594.816 146.485 594.816 151.462V154.166C594.816 159.143 590.766 163.193 585.789 163.193H569.569L569.443 163.411L566.626 168.29L563.809 163.411L563.683 163.193H547.462C542.485 163.193 538.436 159.143 538.436 154.166V151.462C538.436 146.485 542.485 142.436 547.462 142.436H585.789ZM585.789 142H547.462C542.236 142 538 146.236 538 151.462V154.166C538 159.392 542.236 163.628 547.462 163.628H563.431L566.626 169.161L569.82 163.628H585.789C591.015 163.628 595.252 159.392 595.252 154.166V151.462C595.252 146.236 591.015 142 585.789 142Z" fill="black"/>
<path d="M608.271 159.068H607.835V182.287H608.271V159.068Z" fill="black" stroke="black" stroke-width="0.5"/>
<path d="M608.053 159.576C611.891 159.576 615.002 156.465 615.002 152.628C615.002 148.791 611.891 145.68 608.053 145.68C604.216 145.68 601.105 148.791 601.105 152.628C601.105 156.465 604.216 159.576 608.053 159.576Z" fill="#C1C1F7"/>
<path d="M608.053 159.794C604.102 159.794 600.887 156.579 600.887 152.628C600.887 148.677 604.102 145.462 608.053 145.462C612.004 145.462 615.219 148.677 615.219 152.628C615.219 156.579 612.004 159.794 608.053 159.794ZM608.053 145.898C604.342 145.898 601.323 148.917 601.323 152.628C601.323 156.339 604.342 159.359 608.053 159.359C611.764 159.359 614.784 156.339 614.784 152.628C614.784 148.917 611.764 145.898 608.053 145.898Z" fill="#162020" stroke="#162020" stroke-width="0.3"/>
<path d="M563.5 214.238V187.198C563.5 185.434 563.95 183.86 564.651 182.744C565.357 181.62 566.268 181.022 567.192 181.022H568.389C569.313 181.022 570.224 181.62 570.93 182.744C571.631 183.86 572.081 185.434 572.081 187.198V214.238C572.081 216.002 571.631 217.576 570.93 218.692C570.224 219.816 569.313 220.414 568.389 220.414H567.192C566.268 220.414 565.357 219.816 564.651 218.692C563.95 217.576 563.5 216.002 563.5 214.238Z" fill="#C1C1F7" stroke="black"/>
<mask id="path-47-inside-1_30_9297" fill="white">
<path d="M568.389 180.958C570.46 180.958 572.145 183.757 572.145 187.198V214.238C572.145 217.679 570.46 220.478 568.389 220.478H567.192C566.227 220.478 565.306 219.856 564.597 218.727C563.848 217.534 563.436 215.94 563.436 214.238V187.198C563.436 183.757 565.121 180.958 567.192 180.958H568.389ZM568.389 180.522H567.192C564.877 180.522 563 183.511 563 187.198V214.238C563 217.925 564.877 220.914 567.192 220.914H568.389C570.704 220.914 572.581 217.925 572.581 214.238V187.198C572.581 183.511 570.704 180.522 568.389 180.522Z"/>
</mask>
<path d="M568.389 180.958C570.46 180.958 572.145 183.757 572.145 187.198V214.238C572.145 217.679 570.46 220.478 568.389 220.478H567.192C566.227 220.478 565.306 219.856 564.597 218.727C563.848 217.534 563.436 215.94 563.436 214.238V187.198C563.436 183.757 565.121 180.958 567.192 180.958H568.389ZM568.389 180.522H567.192C564.877 180.522 563 183.511 563 187.198V214.238C563 217.925 564.877 220.914 567.192 220.914H568.389C570.704 220.914 572.581 217.925 572.581 214.238V187.198C572.581 183.511 570.704 180.522 568.389 180.522Z" fill="black"/>
<path d="M564.597 218.727L565.444 218.195L565.444 218.195L564.597 218.727ZM563 214.238L564 214.238V214.238H563ZM568.389 181.958C568.936 181.958 569.603 182.333 570.187 183.304C570.759 184.254 571.145 185.629 571.145 187.198H573.145C573.145 185.327 572.689 183.582 571.901 182.272C571.124 180.983 569.914 179.958 568.389 179.958V181.958ZM571.145 187.198V214.238H573.145V187.198H571.145ZM571.145 214.238C571.145 215.807 570.759 217.183 570.187 218.133C569.603 219.103 568.936 219.478 568.389 219.478V221.478C569.914 221.478 571.124 220.454 571.901 219.164C572.689 217.854 573.145 216.11 573.145 214.238H571.145ZM568.389 219.478H567.192V221.478H568.389V219.478ZM567.192 219.478C566.695 219.478 566.047 219.156 565.444 218.195L563.75 219.258C564.564 220.556 565.759 221.478 567.192 221.478V219.478ZM565.444 218.195C564.814 217.192 564.436 215.792 564.436 214.238H562.436C562.436 216.089 562.882 217.876 563.75 219.259L565.444 218.195ZM564.436 214.238V187.198H562.436V214.238H564.436ZM564.436 187.198C564.436 185.629 564.822 184.254 565.394 183.304C565.978 182.333 566.645 181.958 567.192 181.958V179.958C565.667 179.958 564.456 180.983 563.68 182.272C562.892 183.582 562.436 185.327 562.436 187.198H564.436ZM567.192 181.958H568.389V179.958H567.192V181.958ZM568.389 179.522H567.192V181.522H568.389V179.522ZM567.192 179.522C565.567 179.522 564.246 180.569 563.381 181.946C562.507 183.337 562 185.196 562 187.198H564C564 185.513 564.431 184.035 565.075 183.01C565.727 181.971 566.501 181.522 567.192 181.522V179.522ZM562 187.198V214.238H564V187.198H562ZM562 214.238C562 216.24 562.507 218.099 563.381 219.49C564.246 220.868 565.567 221.914 567.192 221.914V219.914C566.501 219.914 565.727 219.465 565.075 218.427C564.431 217.401 564 215.923 564 214.238L562 214.238ZM567.192 221.914H568.389V219.914H567.192V221.914ZM568.389 221.914C570.014 221.914 571.335 220.868 572.2 219.49C573.073 218.099 573.581 216.24 573.581 214.238H571.581C571.581 215.923 571.15 217.401 570.506 218.427C569.854 219.465 569.08 219.914 568.389 219.914V221.914ZM573.581 214.238V187.198H571.581V214.238H573.581ZM573.581 187.198C573.581 185.196 573.073 183.337 572.2 181.946C571.335 180.569 570.014 179.522 568.389 179.522V181.522C569.08 181.522 569.854 181.971 570.506 183.01C571.15 184.035 571.581 185.513 571.581 187.198H573.581Z" fill="#162020" mask="url(#path-47-inside-1_30_9297)"/>
<path d="M644.026 214.238V187.198C644.026 185.434 644.476 183.86 645.177 182.744C645.882 181.62 646.793 181.022 647.717 181.022H648.915C649.839 181.022 650.75 181.62 651.455 182.744C652.157 183.86 652.607 185.434 652.607 187.198V214.238C652.607 216.002 652.157 217.576 651.455 218.692C650.75 219.816 649.839 220.414 648.915 220.414H647.717C646.793 220.414 645.882 219.816 645.177 218.692C644.476 217.576 644.026 216.002 644.026 214.238Z" fill="#C1C1F7" stroke="black"/>
<mask id="path-50-inside-2_30_9297" fill="white">
<path d="M648.915 180.958C649.879 180.958 650.801 181.58 651.51 182.709C652.259 183.902 652.671 185.496 652.671 187.198V214.238C652.671 217.679 650.986 220.478 648.915 220.478H647.717C645.646 220.478 643.961 217.679 643.961 214.238V187.198C643.961 183.757 645.646 180.958 647.717 180.958H648.915ZM648.915 180.522H647.717C645.402 180.522 643.526 183.511 643.526 187.198V214.238C643.526 217.925 645.402 220.914 647.717 220.914H648.915C651.23 220.914 653.107 217.925 653.107 214.238V187.198C653.107 183.511 651.23 180.522 648.915 180.522Z"/>
</mask>
<path d="M648.915 180.958C649.879 180.958 650.801 181.58 651.51 182.709C652.259 183.902 652.671 185.496 652.671 187.198V214.238C652.671 217.679 650.986 220.478 648.915 220.478H647.717C645.646 220.478 643.961 217.679 643.961 214.238V187.198C643.961 183.757 645.646 180.958 647.717 180.958H648.915ZM648.915 180.522H647.717C645.402 180.522 643.526 183.511 643.526 187.198V214.238C643.526 217.925 645.402 220.914 647.717 220.914H648.915C651.23 220.914 653.107 217.925 653.107 214.238V187.198C653.107 183.511 651.23 180.522 648.915 180.522Z" fill="#162020"/>
<path d="M651.51 182.709L650.663 183.241L650.663 183.241L651.51 182.709ZM653.107 187.198L652.107 187.198V187.198H653.107ZM648.915 181.958C649.411 181.958 650.059 182.28 650.663 183.241L652.357 182.178C651.542 180.88 650.347 179.958 648.915 179.958V181.958ZM650.663 183.241C651.293 184.244 651.671 185.644 651.671 187.198H653.671C653.671 185.347 653.225 183.56 652.357 182.178L650.663 183.241ZM651.671 187.198V214.238H653.671V187.198H651.671ZM651.671 214.238C651.671 215.807 651.285 217.183 650.713 218.133C650.129 219.103 649.462 219.478 648.915 219.478V221.478C650.439 221.478 651.65 220.454 652.426 219.164C653.215 217.854 653.671 216.11 653.671 214.238H651.671ZM648.915 219.478H647.717V221.478H648.915V219.478ZM647.717 219.478C647.17 219.478 646.503 219.103 645.919 218.133C645.348 217.183 644.961 215.807 644.961 214.238H642.961C642.961 216.11 643.417 217.854 644.206 219.164C644.982 220.454 646.193 221.478 647.717 221.478V219.478ZM644.961 214.238V187.198H642.961V214.238H644.961ZM644.961 187.198C644.961 185.629 645.348 184.254 645.919 183.304C646.503 182.333 647.17 181.958 647.717 181.958V179.958C646.193 179.958 644.982 180.983 644.206 182.272C643.417 183.582 642.961 185.327 642.961 187.198H644.961ZM647.717 181.958H648.915V179.958H647.717V181.958ZM648.915 179.522H647.717V181.522H648.915V179.522ZM647.717 179.522C646.093 179.522 644.771 180.569 643.906 181.946C643.033 183.337 642.526 185.196 642.526 187.198H644.526C644.526 185.513 644.956 184.035 645.6 183.01C646.252 181.971 647.027 181.522 647.717 181.522V179.522ZM642.526 187.198V214.238H644.526V187.198H642.526ZM642.526 214.238C642.526 216.24 643.033 218.099 643.906 219.49C644.771 220.868 646.093 221.914 647.717 221.914V219.914C647.027 219.914 646.252 219.465 645.6 218.427C644.956 217.401 644.526 215.923 644.526 214.238H642.526ZM647.717 221.914H648.915V219.914H647.717V221.914ZM648.915 221.914C650.539 221.914 651.861 220.868 652.726 219.49C653.599 218.099 654.107 216.24 654.107 214.238H652.107C652.107 215.923 651.676 217.401 651.032 218.427C650.38 219.465 649.605 219.914 648.915 219.914V221.914ZM654.107 214.238V187.198H652.107V214.238H654.107ZM654.107 187.198C654.107 185.196 653.599 183.337 652.726 181.946C651.861 180.569 650.539 179.522 648.915 179.522V181.522C649.605 181.522 650.38 181.971 651.032 183.01C651.676 184.035 652.107 185.513 652.107 187.198L654.107 187.198Z" fill="#162020" mask="url(#path-50-inside-2_30_9297)"/>
<path d="M608.053 166.732C586.052 166.732 568.216 184.568 568.216 206.57V229.883C580.294 234.444 593.798 236.999 608.053 236.999C622.309 236.999 635.813 234.444 647.891 229.883V206.57C647.891 184.568 630.055 166.732 608.053 166.732Z" fill="#C1C1F7" stroke="black"/>
<path d="M607.838 167.436C629.564 167.436 647.239 185.111 647.239 206.837V229.849C634.865 234.482 621.611 236.831 607.838 236.831C594.065 236.831 580.811 234.482 568.436 229.849V206.837C568.436 185.111 586.111 167.436 607.838 167.436ZM607.838 167C585.836 167 568 184.836 568 206.837V230.15C580.078 234.712 593.583 237.267 607.838 237.267C622.093 237.267 635.597 234.712 647.675 230.15V206.837C647.675 184.836 629.839 167 607.838 167Z" fill="#162020"/>
<path d="M588.89 194.605H627.217C632.166 194.605 636.179 198.618 636.179 203.568V206.271C636.179 211.221 632.166 215.234 627.217 215.234H588.89C583.94 215.234 579.927 211.221 579.927 206.271V203.568C579.927 198.618 583.94 194.605 588.89 194.605Z" fill="white" stroke="#162020"/>
<path d="M627.217 194.541C632.194 194.541 636.243 198.59 636.243 203.568V206.271C636.243 211.249 632.194 215.298 627.217 215.298H588.89C583.913 215.298 579.863 211.249 579.863 206.271V203.568C579.863 198.59 583.913 194.541 588.89 194.541H627.217ZM627.217 194.105H588.89C583.664 194.105 579.427 198.342 579.427 203.568V206.271C579.427 211.497 583.664 215.734 588.89 215.734H627.217C632.443 215.734 636.679 211.497 636.679 206.271V203.568C636.679 198.342 632.443 194.105 627.217 194.105Z" fill="black"/>
<path d="M593.888 204.723C593.888 206.517 592.434 207.972 590.639 207.972C588.845 207.972 587.39 206.517 587.39 204.723C587.39 202.928 588.845 201.473 590.639 201.473C592.434 201.473 593.888 202.928 593.888 204.723Z" fill="#9180F4" stroke="#162020" stroke-width="0.3"/>
<path d="M590.639 208.19C588.728 208.19 587.172 206.634 587.172 204.722C587.172 202.81 588.728 201.255 590.639 201.255C592.551 201.255 594.106 202.811 594.106 204.722C594.106 206.634 592.551 208.19 590.639 208.19ZM590.639 201.391C588.802 201.391 587.308 202.886 587.308 204.722C587.308 206.559 588.802 208.054 590.639 208.054C592.476 208.054 593.971 206.56 593.971 204.722C593.971 202.885 592.476 201.391 590.639 201.391Z" fill="black" stroke="#162020" stroke-width="0.3"/>
<path d="M611.303 204.723C611.303 206.517 609.848 207.972 608.053 207.972C606.259 207.972 604.804 206.517 604.804 204.723C604.804 202.928 606.259 201.473 608.053 201.473C609.848 201.473 611.303 202.928 611.303 204.723Z" fill="#9180F4" stroke="#162020" stroke-width="0.3"/>
<path d="M608.053 208.19C606.141 208.19 604.586 206.634 604.586 204.722C604.586 202.81 606.141 201.255 608.053 201.255C609.965 201.255 611.521 202.811 611.521 204.722C611.521 206.634 609.965 208.19 608.053 208.19ZM608.053 201.391C606.216 201.391 604.722 202.885 604.722 204.722C604.722 206.559 606.216 208.054 608.053 208.054C609.891 208.054 611.385 206.559 611.385 204.722C611.385 202.885 609.89 201.391 608.053 201.391Z" fill="black" stroke="#162020" stroke-width="0.3"/>
<path d="M628.716 204.723C628.716 206.517 627.262 207.972 625.467 207.972C623.673 207.972 622.218 206.517 622.218 204.723C622.218 202.928 623.673 201.473 625.467 201.473C627.262 201.473 628.716 202.928 628.716 204.723Z" fill="#9180F4" stroke="#162020" stroke-width="0.3"/>
<path d="M625.467 208.19C623.555 208.19 622 206.634 622 204.722C622 202.81 623.555 201.255 625.467 201.255C627.379 201.255 628.934 202.811 628.934 204.722C628.934 206.634 627.379 208.19 625.467 208.19ZM625.467 201.391C623.63 201.391 622.136 202.885 622.136 204.722C622.136 206.559 623.63 208.054 625.467 208.054C627.305 208.054 628.799 206.559 628.799 204.722C628.799 202.885 627.304 201.391 625.467 201.391Z" fill="black" stroke="#162020" stroke-width="0.3"/>
<path d="M571.351 157.179H547.456C547.306 157.179 547.184 157.057 547.184 156.907C547.184 156.757 547.306 156.635 547.456 156.635H571.351C571.501 156.635 571.623 156.757 571.623 156.907C571.623 157.057 571.501 157.179 571.351 157.179Z" fill="#162020"/>
<path d="M585.795 157.179H576.177C576.027 157.179 575.905 157.057 575.905 156.907C575.905 156.757 576.027 156.635 576.177 156.635H585.795C585.945 156.635 586.067 156.757 586.067 156.907C586.067 157.057 585.945 157.179 585.795 157.179Z" fill="#162020"/>
<path d="M556.88 150.059H547.362C547.212 150.059 547.09 149.937 547.09 149.787C547.09 149.637 547.212 149.515 547.362 149.515H556.88C557.03 149.515 557.152 149.637 557.152 149.787C557.152 149.937 557.03 150.059 556.88 150.059Z" fill="#162020"/>
<path d="M585.889 150.059H561.391C561.241 150.059 561.119 149.937 561.119 149.787C561.119 149.637 561.241 149.515 561.391 149.515H585.889C586.039 149.515 586.161 149.637 586.161 149.787C586.161 149.937 586.039 150.059 585.889 150.059Z" fill="#162020"/>
<path d="M503.754 111.999V112.002C503.76 113.689 503.726 115.467 503.628 117.311V117.315C503.541 119.012 503.403 120.764 503.187 122.557V122.56C501.512 136.7 495.373 153.221 475.6 163.101C474.109 163.846 472.542 164.555 470.894 165.22C470.287 165.463 469.668 165.704 469.04 165.938C469.04 166.021 468.717 166.021 468.717 165.938C467.688 165.556 466.687 165.158 465.72 164.746C464.713 164.318 463.736 163.874 462.791 163.415C459.113 161.629 455.895 159.618 453.083 157.434C450.874 155.721 448.912 153.898 447.175 151.998C446.923 151.721 446.676 151.446 446.433 151.166C445.364 149.94 444.388 148.684 443.492 147.403C442.876 146.525 442.3 145.638 441.761 144.738C441.256 143.901 440.784 143.057 440.341 142.207C440.036 141.618 439.743 141.027 439.466 140.436C438.61 138.615 437.886 136.774 437.27 134.932C432.333 120.163 434.452 105.223 434.452 99.1305C450.804 104.579 466.514 92.0004 468.741 90.1155C468.741 89.9615 469.012 89.9615 469.012 90.1155C469.018 90.1217 469.028 90.1247 469.031 90.1309C469.628 90.6329 471.128 91.8526 473.312 93.2817C473.527 93.4234 473.752 93.5681 473.98 93.7098C474.91 94.3073 475.951 94.9233 477.082 95.5362C477.596 95.8134 478.132 96.0906 478.683 96.3647C480.186 97.107 481.825 97.8184 483.565 98.4375C484.125 98.6346 484.695 98.8225 485.277 98.9981C487.892 99.7958 490.71 100.347 493.639 100.464C496.766 100.59 500.021 100.224 503.304 99.1305C503.304 100.781 503.458 103.088 503.588 105.869C503.674 107.72 503.748 109.781 503.754 111.999Z" fill="#FFCD1C" stroke="black" stroke-miterlimit="10"/>
<g opacity="0.82">
<path d="M493.639 100.463L447.175 151.997C446.923 151.72 446.676 151.445 446.433 151.165C445.364 149.939 444.388 148.683 443.492 147.402C442.876 146.524 442.3 145.637 441.761 144.737L483.565 98.4365C484.125 98.6336 484.695 98.8215 485.277 98.9971C487.892 99.7948 490.71 100.346 493.639 100.463Z" fill="#FFF8E2" stroke="black" stroke-miterlimit="10"/>
</g>
<g opacity="0.82">
<path d="M478.683 96.3649L439.466 140.436C438.61 138.616 437.886 136.774 437.27 134.932L473.98 93.71C474.91 94.3075 475.951 94.9235 477.082 95.5364C477.596 95.8136 478.132 96.0908 478.683 96.3649Z" fill="#FFF8E2" stroke="black" stroke-miterlimit="10"/>
</g>
<g opacity="0.82">
<path d="M503.628 117.315C503.542 119.012 503.403 120.765 503.187 122.558V122.561L465.72 164.747C464.713 164.319 463.736 163.875 462.791 163.416L503.628 117.315Z" fill="#FFF8E2" stroke="black" stroke-miterlimit="10"/>
</g>
<path d="M478.012 100.7C477.1 100.272 476.238 99.8318 475.434 99.3975C473.789 98.5012 472.388 97.6173 471.301 96.875C470.136 96.0804 469.329 95.4521 468.972 95.1472C468.972 95.0147 468.735 95.0147 468.735 95.1472C467.771 95.9634 463.582 99.108 457.866 101.452C452.156 103.796 444.915 105.342 437.828 102.979C437.828 108.286 436.331 121.324 441.003 134.176C442.318 137.798 444.126 141.405 446.593 144.821C447.594 146.21 448.706 147.565 449.938 148.874C450.619 149.601 451.333 150.309 452.088 151.005C456.307 154.895 461.737 158.308 468.713 160.895C468.713 160.966 468.997 160.966 468.997 160.895C504.792 147.614 499.938 112.74 499.938 103.121C492.059 105.745 483.974 103.5 478.012 100.7Z" fill="#FFF8E2" stroke="black" stroke-miterlimit="10"/>
<path d="M481.477 129.334C481.477 132.565 480.22 135.513 478.157 137.715C475.856 140.185 472.551 141.731 468.877 141.731C465.202 141.731 461.898 140.185 459.597 137.715C457.533 135.513 456.277 132.565 456.277 129.334C456.277 122.485 461.919 116.935 468.877 116.935C475.834 116.935 481.477 122.485 481.477 129.334Z" fill="#FFCD1C" stroke="black" stroke-miterlimit="10"/>
<path d="M478.156 137.715C475.856 140.185 472.551 141.731 468.877 141.731C465.202 141.731 461.897 140.185 459.597 137.715C460.856 133.607 463.456 130.502 466.622 129.489C465.073 128.691 464.016 127.096 464.016 125.254C464.016 122.611 466.191 120.474 468.877 120.474C471.562 120.474 473.737 122.611 473.737 125.254C473.737 127.096 472.68 128.691 471.131 129.489C474.3 130.499 476.9 133.603 478.156 137.715Z" fill="#FF9C8F" stroke="black" stroke-miterlimit="10"/>
<path d="M447.477 161.881C453.211 161.881 457.86 157.233 457.86 151.499C457.86 145.765 453.211 141.116 447.477 141.116C441.743 141.116 437.095 145.765 437.095 151.499C437.095 157.233 441.743 161.881 447.477 161.881Z" fill="#FFD5D2" stroke="black" stroke-miterlimit="10"/>
<path d="M453.951 147.747L446.002 157.094L440.868 151.578L442.235 150.075L446.002 153.978L452.621 146.29L453.951 147.747Z" fill="#F76054" stroke="black" stroke-miterlimit="10"/>
<path d="M295.23 106.186L290.201 93.6101C289.795 92.5937 290.155 91.4288 291.066 90.8216L291.614 90.4553C292.772 89.6831 294.349 90.0989 294.97 91.3463C295.666 92.7389 297.653 92.7389 298.349 91.3463L298.883 90.2804C299.276 89.495 300.078 89 300.956 89C301.834 89 302.636 89.495 303.028 90.2804L303.563 91.3463C304.259 92.7389 306.246 92.7389 306.942 91.3463C307.566 90.0989 309.14 89.6831 310.298 90.4553L310.846 90.8216C311.757 91.4288 312.12 92.5937 311.711 93.6101L306.681 106.186H295.23Z" fill="#083F3F" stroke="black" stroke-width="0.33" stroke-miterlimit="10"/>
<path d="M293.739 106.603C285.317 111.374 279.311 120.281 277.463 130.739L275.265 143.193C273.602 152.618 279.965 161.412 288.452 161.412H314.047C322.531 161.412 328.897 152.618 327.234 143.193L325.036 130.739C323.188 120.281 317.182 111.371 308.76 106.603H293.739Z" fill="#083F3F" stroke="black" stroke-width="0.33" stroke-miterlimit="10"/>
<path d="M310.219 106.895H292.551C291.993 106.895 291.538 106.443 291.538 105.882L292.524 103.454C292.524 102.896 292.977 102.44 293.538 102.44H309.232C309.79 102.44 310.245 102.893 310.245 103.454L311.232 105.882C311.229 106.443 310.777 106.895 310.219 106.895Z" fill="#DD9903" stroke="black" stroke-width="0.33" stroke-miterlimit="10"/>
<path d="M334.316 163.035H299.788C299.072 163.035 298.491 162.455 298.491 161.739V156.993C298.491 156.277 299.072 155.696 299.788 155.696H334.316C335.032 155.696 335.613 156.277 335.613 156.993V161.739C335.613 162.455 335.032 163.035 334.316 163.035Z" fill="#FFB900" stroke="black" stroke-width="0.495" stroke-miterlimit="10"/>
<path d="M301.969 155.681V162.941" stroke="black" stroke-width="0.495" stroke-miterlimit="10"/>
<path d="M306.998 155.681V162.941" stroke="black" stroke-width="0.495" stroke-miterlimit="10"/>
<path d="M312.024 155.681V162.941" stroke="black" stroke-width="0.495" stroke-miterlimit="10"/>
<path d="M317.05 155.681V162.941" stroke="black" stroke-width="0.495" stroke-miterlimit="10"/>
<path d="M322.079 155.681V162.941" stroke="black" stroke-width="0.495" stroke-miterlimit="10"/>
<path d="M327.105 155.681V162.941" stroke="black" stroke-width="0.495" stroke-miterlimit="10"/>
<path d="M332.135 155.681V162.941" stroke="black" stroke-width="0.495" stroke-miterlimit="10"/>
<path d="M338.233 155.693H303.705C302.989 155.693 302.408 155.112 302.408 154.396V149.65C302.408 148.934 302.989 148.354 303.705 148.354H338.233C338.949 148.354 339.53 148.934 339.53 149.65V154.396C339.526 155.112 338.949 155.693 338.233 155.693Z" fill="#FFB900" stroke="black" stroke-width="0.495" stroke-miterlimit="10"/>
<path d="M305.886 148.339V155.596" stroke="black" stroke-width="0.495" stroke-miterlimit="10"/>
<path d="M310.912 148.339V155.596" stroke="black" stroke-width="0.495" stroke-miterlimit="10"/>
<path d="M315.942 148.339V155.596" stroke="black" stroke-width="0.495" stroke-miterlimit="10"/>
<path d="M320.967 148.339V155.596" stroke="black" stroke-width="0.495" stroke-miterlimit="10"/>
<path d="M325.997 148.339V155.596" stroke="black" stroke-width="0.495" stroke-miterlimit="10"/>
<path d="M331.022 148.339V155.596" stroke="black" stroke-width="0.495" stroke-miterlimit="10"/>
<path d="M336.049 148.339V155.596" stroke="black" stroke-width="0.495" stroke-miterlimit="10"/>
<path d="M335.85 148.441H301.322C300.606 148.441 300.025 147.86 300.025 147.144V142.398C300.025 141.682 300.606 141.102 301.322 141.102H335.85C336.566 141.102 337.147 141.682 337.147 142.398V147.144C337.144 147.863 336.566 148.441 335.85 148.441Z" fill="#FFB900" stroke="black" stroke-width="0.495" stroke-miterlimit="10"/>
<path d="M303.504 141.085V148.345" stroke="black" stroke-width="0.495" stroke-miterlimit="10"/>
<path d="M308.53 141.085V148.345" stroke="black" stroke-width="0.495" stroke-miterlimit="10"/>
<path d="M313.559 141.085V148.345" stroke="black" stroke-width="0.495" stroke-miterlimit="10"/>
<path d="M318.585 141.085V148.345" stroke="black" stroke-width="0.495" stroke-miterlimit="10"/>
<path d="M323.614 141.085V148.345" stroke="black" stroke-width="0.495" stroke-miterlimit="10"/>
<path d="M328.64 141.085V148.345" stroke="black" stroke-width="0.495" stroke-miterlimit="10"/>
<path d="M333.666 141.085V148.345" stroke="black" stroke-width="0.495" stroke-miterlimit="10"/>
<path d="M190.712 184.889H119.192V210.213H190.712V184.889Z" fill="#6D1313"/>
<path d="M190.712 210.37H119.192C119.106 210.37 119.036 210.3 119.036 210.214V184.889C119.036 184.803 119.106 184.733 119.192 184.733H190.712C190.798 184.733 190.868 184.803 190.868 184.889V210.214C190.868 210.3 190.798 210.37 190.712 210.37ZM119.348 210.058H190.556V185.045H119.348V210.058Z" fill="#162020"/>
<path d="M229.112 182.898H195.641V209.756H229.112V182.898Z" fill="#6D1313"/>
<path d="M229.112 209.922H195.641C195.55 209.922 195.476 209.848 195.476 209.756V182.899C195.476 182.807 195.55 182.733 195.641 182.733H229.112C229.203 182.733 229.277 182.807 229.277 182.899V209.756C229.277 209.848 229.203 209.922 229.112 209.922ZM195.806 209.591H228.947V183.064H195.806V209.591Z" fill="#162020"/>
<path d="M193.335 156.141H145.617V181.44H193.335V156.141Z" fill="#6D1313"/>
<path d="M193.335 181.582H145.617C145.539 181.582 145.476 181.519 145.476 181.441V156.141C145.476 156.063 145.539 156 145.617 156H193.335C193.413 156 193.476 156.063 193.476 156.141V181.441C193.476 181.519 193.413 181.582 193.335 181.582ZM145.758 181.3H193.194V156.282H145.758V181.3Z" fill="#162020"/>
<path d="M201.48 213.917H141.659V246.744H201.48V213.917Z" fill="white"/>
<path d="M201.48 246.927H141.659C141.558 246.927 141.476 246.845 141.476 246.744V213.917C141.476 213.816 141.558 213.734 141.659 213.734H201.48C201.581 213.734 201.663 213.816 201.663 213.917V246.744C201.663 246.845 201.581 246.927 201.48 246.927ZM141.842 246.561H201.297V214.1H141.842V246.561Z" fill="#162020"/>
<path d="M161.161 179.395C166.792 179.395 171.357 174.83 171.357 169.199C171.357 163.568 166.792 159.003 161.161 159.003C155.53 159.003 150.965 163.568 150.965 169.199C150.965 174.83 155.53 179.395 161.161 179.395Z" fill="#C63434"/>
<path d="M161.161 179.538C155.46 179.538 150.821 174.9 150.821 169.199C150.821 163.498 155.46 158.859 161.161 158.859C166.862 158.859 171.5 163.498 171.5 169.199C171.5 174.9 166.862 179.538 161.161 179.538ZM161.161 159.146C155.618 159.146 151.108 163.656 151.108 169.199C151.108 174.742 155.618 179.251 161.161 179.251C166.704 179.251 171.213 174.742 171.213 169.199C171.213 163.656 166.704 159.146 161.161 159.146Z" fill="#162020"/>
<path d="M169.743 174.701C170.763 173.114 171.357 171.226 171.357 169.199C171.357 163.568 166.792 159.003 161.161 159.003V169.247L169.743 174.701Z" fill="#DB3E3E"/>
<path d="M169.786 174.899L161.017 169.326V158.859H161.161C166.862 158.859 171.5 163.498 171.5 169.199C171.5 171.183 170.934 173.112 169.863 174.779L169.786 174.899ZM161.304 169.168L169.698 174.503C170.69 172.911 171.213 171.08 171.213 169.199C171.213 163.704 166.781 159.225 161.304 159.148V169.168Z" fill="#162020"/>
<path d="M161.161 179.538C155.46 179.538 150.821 174.9 150.821 169.199C150.821 163.498 155.46 158.859 161.161 158.859C166.862 158.859 171.5 163.498 171.5 169.199C171.5 174.9 166.862 179.538 161.161 179.538ZM161.161 159.146C155.618 159.146 151.108 163.656 151.108 169.199C151.108 174.742 155.618 179.251 161.161 179.251C166.704 179.251 171.213 174.742 171.213 169.199C171.213 163.656 166.704 159.146 161.161 159.146Z" fill="#162020"/>
<path d="M169.688 174.852C169.661 174.852 169.634 174.845 169.61 174.83L161.083 169.368C161.042 169.341 161.017 169.296 161.017 169.247V159.003C161.017 158.924 161.082 158.859 161.161 158.859C161.24 158.859 161.304 158.924 161.304 159.003V169.168L169.765 174.588C169.832 174.631 169.851 174.72 169.809 174.786C169.781 174.829 169.735 174.852 169.688 174.852Z" fill="#162020"/>
<path d="M182.595 166.065C181.97 166.045 181.385 165.791 180.946 165.348L181.15 165.146C181.537 165.536 182.053 165.761 182.605 165.778L182.595 166.065Z" fill="#162020"/>
<path d="M182.674 166.068C182.656 166.068 182.639 166.067 182.622 166.066L182.596 166.065L182.604 165.777L182.674 165.781C183.211 165.781 183.727 165.579 184.125 165.212L184.319 165.423C183.868 165.839 183.284 166.068 182.674 166.068Z" fill="#162020"/>
<path d="M184.319 165.425L184.125 165.214C184.555 164.817 184.8 164.277 184.815 163.693L185.102 163.701C185.085 164.363 184.807 164.975 184.319 165.425Z" fill="#162020"/>
<path d="M184.182 162.115C183.778 161.715 183.242 161.494 182.674 161.494C182.662 161.494 182.651 161.495 182.64 161.496L182.605 161.498L182.595 161.211L182.62 161.209C182.638 161.208 182.655 161.207 182.674 161.207C183.318 161.207 183.926 161.457 184.384 161.911L184.182 162.115Z" fill="#162020"/>
<path d="M181.098 162.186L180.887 161.991C181.333 161.508 181.939 161.231 182.595 161.21L182.604 161.497C182.026 161.515 181.491 161.76 181.098 162.186Z" fill="#162020"/>
<path d="M180.245 163.7C180.243 163.666 180.242 163.652 180.242 163.638C180.242 163.028 180.471 162.444 180.887 161.992L181.099 162.187C180.732 162.585 180.529 163.1 180.529 163.638L180.532 163.693L180.245 163.7Z" fill="#162020"/>
<path d="M180.946 165.349C180.51 164.909 180.261 164.323 180.245 163.701L180.532 163.693C180.546 164.242 180.766 164.759 181.15 165.147L180.946 165.349Z" fill="#162020"/>
<path d="M184.815 163.691L184.816 163.658C184.818 163.06 184.592 162.519 184.182 162.113L184.384 161.909C184.849 162.37 185.105 162.983 185.105 163.636C185.105 163.65 185.104 163.664 185.103 163.678L184.815 163.691Z" fill="#162020"/>
<path d="M184.222 165.318C183.814 165.694 183.272 165.925 182.673 165.925C182.649 165.925 182.624 165.922 182.6 165.922C181.994 165.902 181.447 165.649 181.048 165.247L179.372 166.924C180.199 167.755 181.339 168.275 182.6 168.294C182.624 168.295 182.649 168.296 182.673 168.296C183.926 168.296 185.063 167.801 185.9 166.996L184.222 165.318Z" fill="#C63434"/>
<path d="M182.673 168.439L182.598 168.437C181.339 168.417 180.157 167.916 179.27 167.024C179.214 166.968 179.214 166.877 179.27 166.821L180.947 165.144C180.974 165.118 181.01 165.103 181.048 165.103H181.049C181.087 165.103 181.123 165.118 181.15 165.145C181.537 165.535 182.053 165.759 182.604 165.777L182.674 165.781C183.211 165.781 183.727 165.579 184.125 165.212C184.181 165.159 184.269 165.161 184.324 165.215L186.002 166.894C186.029 166.921 186.044 166.958 186.044 166.997C186.043 167.035 186.027 167.072 186 167.099C185.1 167.963 183.919 168.439 182.673 168.439ZM179.576 166.922C180.398 167.697 181.467 168.132 182.602 168.15L182.673 168.152C183.796 168.152 184.862 167.741 185.693 166.992L184.215 165.513C183.78 165.872 183.238 166.068 182.673 166.068C182.656 166.068 182.639 166.067 182.622 166.065L182.596 166.064C182.018 166.045 181.475 165.827 181.051 165.446L179.576 166.922Z" fill="#162020"/>
<path d="M180.389 163.693H178.016C178.032 164.953 178.546 166.092 179.372 166.922L181.049 165.245C180.652 164.844 180.404 164.298 180.389 163.693Z" fill="white"/>
<path d="M179.372 167.065H179.371C179.333 167.065 179.297 167.05 179.27 167.023C178.384 166.133 177.888 164.951 177.873 163.695C177.872 163.657 177.887 163.62 177.914 163.592C177.941 163.565 177.978 163.55 178.016 163.55H180.389C180.466 163.55 180.53 163.612 180.532 163.69C180.546 164.239 180.766 164.755 181.15 165.144C181.206 165.2 181.206 165.29 181.15 165.346L179.473 167.023C179.446 167.05 179.41 167.065 179.372 167.065ZM178.164 163.837C178.211 164.916 178.636 165.928 179.374 166.717L180.849 165.241C180.504 164.849 180.296 164.359 180.253 163.837H178.164Z" fill="#162020"/>
<path d="M185.96 160.336C185.117 159.498 183.956 158.979 182.673 158.979C182.649 158.979 182.624 158.981 182.6 158.981V161.354C182.625 161.354 182.649 161.351 182.673 161.351C183.301 161.351 183.87 161.604 184.283 162.013C184.702 162.428 184.961 163.003 184.961 163.638C184.961 163.658 184.959 163.677 184.958 163.696C184.942 164.338 184.662 164.913 184.222 165.319L185.9 166.997C186.769 166.162 187.315 164.993 187.331 163.696C187.331 163.677 187.332 163.658 187.332 163.638C187.332 162.348 186.807 161.18 185.96 160.336Z" fill="#DB3E3E"/>
<path d="M185.898 167.198L184.015 165.314L184.125 165.213C184.555 164.816 184.8 164.277 184.815 163.693L184.817 163.66C184.818 163.062 184.592 162.521 184.182 162.115C183.778 161.715 183.242 161.494 182.674 161.494C182.662 161.494 182.651 161.495 182.64 161.496L182.456 161.503V158.839L182.674 158.836C183.952 158.836 185.155 159.333 186.061 160.235C186.973 161.143 187.476 162.351 187.476 163.638L187.474 163.698C187.458 164.993 186.935 166.201 186 167.1L185.898 167.198ZM184.426 165.32L185.901 166.794C186.717 165.961 187.173 164.865 187.187 163.695L187.189 163.638C187.189 162.428 186.716 161.292 185.859 160.438H185.858C185.023 159.607 183.919 159.141 182.743 159.123V161.208C183.362 161.225 183.942 161.474 184.384 161.911C184.849 162.372 185.105 162.985 185.105 163.638C185.105 163.652 185.104 163.666 185.103 163.68C185.087 164.311 184.848 164.882 184.426 165.32Z" fill="#162020"/>
<path d="M179.315 160.41C178.51 161.247 178.015 162.383 178.015 163.636C178.015 163.656 178.016 163.675 178.016 163.695H180.389C180.388 163.675 180.386 163.656 180.386 163.636C180.386 163.038 180.617 162.495 180.993 162.088C181.396 161.651 181.964 161.373 182.6 161.352V158.979C181.309 159 180.147 159.544 179.315 160.41Z" fill="#FFB8B1"/>
<path d="M180.389 163.838H178.016C177.937 163.838 177.874 163.775 177.873 163.696L177.871 163.636C177.871 162.391 178.347 161.209 179.212 160.31C180.106 159.38 181.308 158.856 182.598 158.836C182.636 158.838 182.673 158.85 182.701 158.877C182.728 158.904 182.743 158.941 182.743 158.979V161.352C182.743 161.43 182.682 161.494 182.604 161.496C182.026 161.514 181.492 161.759 181.099 162.185C180.732 162.583 180.529 163.099 180.529 163.636L180.532 163.691C180.533 163.73 180.518 163.767 180.491 163.795C180.464 163.823 180.427 163.838 180.389 163.838ZM178.159 163.551H180.244C180.264 162.972 180.491 162.421 180.888 161.991C181.302 161.542 181.854 161.27 182.456 161.217V159.127C181.299 159.182 180.226 159.67 179.418 160.509V160.509C178.626 161.334 178.18 162.411 178.159 163.551Z" fill="#162020"/>
<path d="M181.209 173.198L181.012 172.989C181.465 172.564 182.054 172.33 182.672 172.33H182.685L182.684 172.617H182.672C182.128 172.617 181.608 172.823 181.209 173.198Z" fill="#162020"/>
<path d="M180.534 174.673L180.247 174.661C180.272 174.048 180.523 173.472 180.954 173.041C180.967 173.028 180.98 173.017 180.993 173.006L181.012 172.988L181.209 173.198L181.157 173.244C180.777 173.624 180.556 174.132 180.534 174.673Z" fill="#162020"/>
<path d="M180.913 176.434C180.456 175.954 180.22 175.325 180.247 174.662L180.533 174.674C180.51 175.258 180.718 175.813 181.121 176.237L180.913 176.434Z" fill="#162020"/>
<path d="M182.685 177.191L182.684 176.904C183.253 176.901 183.788 176.678 184.189 176.276C184.198 176.268 184.205 176.26 184.212 176.252L184.236 176.225L184.445 176.421L184.429 176.44C184.417 176.453 184.405 176.467 184.392 176.48C183.937 176.935 183.331 177.188 182.685 177.191Z" fill="#162020"/>
<path d="M184.445 176.422L184.236 176.226C184.632 175.804 184.837 175.253 184.813 174.674L185.1 174.662C185.127 175.318 184.894 175.944 184.445 176.422Z" fill="#162020"/>
<path d="M184.813 174.674C184.791 174.133 184.57 173.626 184.189 173.245L184.149 173.209L184.347 173.001C184.372 173.023 184.382 173.032 184.393 173.042C184.824 173.474 185.075 174.049 185.1 174.662L184.813 174.674Z" fill="#162020"/>
<path d="M184.149 173.208C183.751 172.829 183.231 172.62 182.684 172.617L182.685 172.33C183.305 172.333 183.896 172.571 184.347 173L184.149 173.208Z" fill="#162020"/>
<path d="M182.674 177.193C182.024 177.193 181.414 176.94 180.954 176.481C180.944 176.471 180.934 176.46 180.925 176.449L181.121 176.238L181.157 176.278C181.562 176.683 182.1 176.906 182.674 176.906H182.684L182.685 177.193H182.674Z" fill="#162020"/>
<path d="M180.39 174.669C180.413 174.115 180.633 173.567 181.056 173.144C181.074 173.127 181.093 173.112 181.111 173.095C181.553 172.68 182.119 172.472 182.685 172.475V170.104C181.512 170.101 180.338 170.539 179.433 171.417C179.415 171.434 179.397 171.45 179.379 171.468C178.493 172.354 178.04 173.508 178.017 174.669L180.39 174.669Z" fill="#DB3E3E"/>
<path d="M180.528 174.812H177.87L177.873 174.666C177.898 173.419 178.397 172.247 179.278 171.366L179.332 171.314C180.234 170.441 181.42 169.96 182.673 169.96H182.685L182.828 169.96L182.828 172.619L182.684 172.618H182.672C182.128 172.618 181.608 172.825 181.209 173.2L181.157 173.246C180.777 173.626 180.555 174.134 180.533 174.675L180.528 174.812ZM178.166 174.525H180.256C180.31 173.964 180.555 173.442 180.954 173.043C180.967 173.03 180.98 173.019 180.993 173.008L181.012 172.99C181.433 172.595 181.971 172.366 182.541 172.335L182.541 170.249C181.411 170.282 180.348 170.73 179.532 171.52L179.48 171.57C178.687 172.363 178.223 173.408 178.166 174.525Z" fill="#162020"/>
<path d="M184.248 173.105L185.926 171.428C185.024 170.548 183.855 170.106 182.684 170.104V172.475C183.248 172.478 183.81 172.689 184.248 173.105Z" fill="#FFB8B1"/>
<path d="M184.248 173.249C184.212 173.249 184.177 173.236 184.149 173.209C183.751 172.831 183.231 172.621 182.684 172.618C182.605 172.618 182.541 172.554 182.541 172.475L182.541 170.103C182.541 170.065 182.556 170.029 182.583 170.002C182.61 169.975 182.647 169.96 182.685 169.96H182.685C183.94 169.963 185.127 170.448 186.026 171.325C186.053 171.352 186.069 171.388 186.069 171.427C186.069 171.465 186.054 171.502 186.027 171.529L184.35 173.207C184.322 173.235 184.285 173.249 184.248 173.249ZM182.828 172.336C183.349 172.369 183.843 172.568 184.243 172.908L185.72 171.431C184.923 170.701 183.906 170.286 182.828 170.25L182.828 172.336Z" fill="#162020"/>
<path d="M182.685 179.418C183.873 179.415 185.061 178.96 185.968 178.053C185.985 178.036 186.002 178.018 186.019 178L184.341 176.322C184.324 176.34 184.309 176.359 184.291 176.377C183.847 176.821 183.266 177.044 182.685 177.046C182.096 177.049 181.506 176.826 181.056 176.377C181.042 176.363 181.031 176.348 181.017 176.334C180.575 175.868 180.366 175.264 180.391 174.666H178.017C177.993 175.871 178.434 177.083 179.339 178.011C179.353 178.025 179.366 178.04 179.379 178.053C180.292 178.966 181.489 179.421 182.685 179.418Z" fill="#C63434"/>
<path d="M182.673 179.561C181.39 179.561 180.185 179.062 179.278 178.155L179.251 178.127C178.332 177.185 177.848 175.96 177.874 174.663C177.875 174.585 177.939 174.522 178.017 174.522H180.39C180.429 174.522 180.467 174.538 180.494 174.567C180.521 174.595 180.535 174.633 180.534 174.672C180.51 175.256 180.719 175.811 181.121 176.235L181.158 176.275C181.563 176.68 182.101 176.903 182.674 176.903H182.684C183.253 176.9 183.788 176.677 184.19 176.275C184.198 176.267 184.205 176.259 184.212 176.251L184.236 176.224C184.263 176.196 184.3 176.179 184.339 176.179C184.369 176.173 184.415 176.193 184.442 176.221L186.12 177.899C186.176 177.954 186.176 178.044 186.121 178.1L186.069 178.155C185.166 179.059 183.963 179.558 182.685 179.561L182.673 179.561ZM178.16 174.809C178.172 175.976 178.624 177.073 179.442 177.911L179.481 177.952C180.334 178.805 181.467 179.274 182.673 179.274H182.684C183.863 179.271 184.973 178.82 185.817 178.001L184.343 176.527C183.894 176.952 183.308 177.187 182.685 177.19H182.674C182.024 177.19 181.414 176.937 180.955 176.478C180.944 176.468 180.934 176.457 180.925 176.446C180.492 175.99 180.257 175.417 180.245 174.809H178.16Z" fill="#162020"/>
<path d="M187.33 174.667C187.307 173.506 186.854 172.352 185.968 171.466C185.954 171.452 185.939 171.439 185.926 171.426L184.248 173.103C184.262 173.117 184.277 173.129 184.291 173.142C184.714 173.565 184.934 174.113 184.957 174.667C184.981 175.26 184.776 175.859 184.341 176.323L186.018 178.001C186.917 177.074 187.354 175.867 187.33 174.667Z" fill="white"/>
<path d="M186.018 178.144C185.98 178.144 185.944 178.129 185.917 178.103L184.239 176.424C184.184 176.369 184.183 176.281 184.236 176.225C184.632 175.803 184.837 175.251 184.813 174.673C184.791 174.131 184.57 173.624 184.189 173.244L184.149 173.207C184.121 173.181 184.105 173.144 184.105 173.105C184.104 173.066 184.119 173.029 184.146 173.002L185.824 171.324C185.879 171.269 185.969 171.268 186.025 171.322L186.069 171.364C186.95 172.245 187.449 173.417 187.474 174.664C187.499 175.954 187.019 177.175 186.122 178.101C186.095 178.129 186.058 178.144 186.02 178.144L186.018 178.144ZM184.538 176.317L186.015 177.795C186.795 176.938 187.21 175.834 187.187 174.67C187.164 173.526 186.717 172.449 185.926 171.628L184.452 173.102C184.847 173.526 185.076 174.076 185.1 174.661C185.125 175.271 184.926 175.854 184.538 176.317Z" fill="#162020"/>
<path d="M184.985 192.301C184.89 192.301 181.86 199.791 176.98 199.791C169.43 199.791 169.354 196.879 165.421 196.681C160.922 196.454 162.271 199.132 156.561 199.132C152.512 198.724 149.472 197.003 147.608 197.292C137.803 198.815 136.404 191.824 133.636 191.347C129.552 191.823 119.156 201.456 119.156 201.456V208.787H190.712V201.456C190.712 201.456 185.059 192.47 184.985 192.301Z" fill="white"/>
<path d="M190.712 208.943H119.156C119.07 208.943 119 208.873 119 208.787V201.456C119 201.413 119.018 201.372 119.05 201.342C119.476 200.947 129.53 191.67 133.618 191.193C133.631 191.191 133.647 191.191 133.662 191.194C134.579 191.352 135.314 192.141 136.244 193.141C138.22 195.264 140.927 198.172 147.584 197.139C148.565 196.987 149.806 197.355 151.377 197.822C152.886 198.27 154.597 198.778 156.576 198.978C159.487 198.977 160.497 198.284 161.474 197.613C162.372 196.997 163.219 196.414 165.428 196.526C167.068 196.609 168.033 197.142 169.15 197.759C170.743 198.639 172.547 199.636 176.98 199.636C178.889 199.636 181.775 198.405 184.68 192.543C184.866 192.168 184.877 192.146 184.985 192.146C185.046 192.146 185.101 192.181 185.126 192.236C185.244 192.462 188.916 198.309 190.844 201.373C190.859 201.398 190.868 201.427 190.868 201.456V208.787C190.868 208.873 190.798 208.943 190.712 208.943ZM119.312 208.632H190.556V201.501C189.657 200.073 185.803 193.944 184.992 192.616C184.981 192.637 184.97 192.659 184.959 192.681C181.983 198.687 178.977 199.947 176.98 199.947C172.467 199.947 170.625 198.93 169 198.032C167.916 197.433 166.98 196.916 165.413 196.837C163.31 196.732 162.541 197.259 161.65 197.87C160.682 198.535 159.584 199.289 156.561 199.289C154.536 199.085 152.81 198.573 151.288 198.12C149.754 197.665 148.543 197.305 147.632 197.447C140.813 198.506 138.04 195.527 136.016 193.353C135.134 192.405 134.436 191.655 133.631 191.505C129.772 191.985 120.096 200.804 119.312 201.525V208.632Z" fill="#162020"/>
<path d="M185.529 199.875C182.933 198.376 181.479 202.633 176.599 202.633C169.049 202.633 169.539 199.363 165.594 199.194C159.26 198.921 162.064 201.849 156.353 201.849C152.304 201.441 149.628 198.748 147.608 198.883C144.033 199.123 140.86 201.724 140.306 201.862C138.771 202.243 137.645 201.753 136.825 201.181C132.981 198.5 133.092 194.405 130.74 196.121C128.834 197.425 119.156 203.047 119.156 203.047V210.378H190.712V203.047C190.712 203.047 185.602 200.044 185.529 199.875Z" fill="#DB3E3E"/>
<path d="M190.867 210.534H119V202.957L119.078 202.912C119.174 202.856 128.773 197.279 130.652 195.993C131.132 195.642 131.551 195.506 131.929 195.577C132.582 195.7 133.021 196.391 133.629 197.347C134.349 198.479 135.245 199.889 136.914 201.054C137.989 201.804 139.054 202.012 140.269 201.711C140.38 201.683 140.697 201.487 141.065 201.259C142.389 200.439 144.856 198.912 147.597 198.728C148.564 198.664 149.659 199.21 150.928 199.843C152.461 200.608 154.199 201.476 156.369 201.695C159.042 201.694 159.772 201.056 160.546 200.382C161.384 199.65 162.253 198.894 165.6 199.038C167.269 199.11 168.192 199.74 169.17 200.406C170.593 201.377 172.206 202.477 176.599 202.477C179 202.477 180.578 201.411 181.847 200.554C183.125 199.69 184.229 198.944 185.606 199.74L185.651 199.765L185.661 199.79C185.933 200.028 188.933 201.821 190.791 202.913L190.867 202.958V210.534ZM119.312 210.222H190.556V203.136C186.525 200.766 185.652 200.18 185.45 200.009C184.242 199.312 183.31 199.941 182.021 200.812C180.717 201.693 179.095 202.788 176.599 202.788C172.109 202.788 170.454 201.66 168.994 200.664C168.014 199.995 167.167 199.417 165.587 199.349C162.361 199.21 161.58 199.893 160.751 200.616C159.968 201.299 159.158 202.005 156.353 202.005C154.111 201.78 152.269 200.861 150.789 200.122C149.56 199.509 148.494 198.98 147.618 199.039C144.954 199.217 142.53 200.718 141.228 201.524C140.776 201.804 140.503 201.974 140.344 202.013C139.054 202.334 137.874 202.103 136.736 201.309C135.016 200.109 134.062 198.609 133.366 197.514C132.8 196.624 132.392 195.981 131.871 195.883C131.583 195.828 131.243 195.947 130.832 196.247C129.03 197.48 120.234 202.6 119.311 203.137L119.312 210.222Z" fill="#162020"/>
<path d="M208.774 193.585H205.354V206.33H208.774V193.585Z" fill="#DB3E3E"/>
<path d="M208.939 206.495H205.188V193.42H208.939V206.495ZM205.519 206.165H208.609V193.75H205.519V206.165Z" fill="#162020"/>
<path d="M203.299 200.422H199.879V206.331H203.299V200.422Z" fill="#FFB8B1"/>
<path d="M203.464 206.496H199.714V200.257H203.464V206.496ZM200.044 206.166H203.133V200.587H200.044V206.166Z" fill="#162020"/>
<path d="M214.248 195.782H210.828V206.33H214.248V195.782Z" fill="#DB3E3E"/>
<path d="M214.414 206.495H210.663V195.617H214.414V206.495ZM210.994 206.165H214.083V195.948H210.994V206.165Z" fill="#162020"/>
<path d="M219.723 190.848H216.303V206.329H219.723V190.848Z" fill="#FFB8B1"/>
<path d="M219.888 206.495H216.138V190.683H219.888V206.495ZM216.468 206.164H219.558V191.013H216.468V206.164Z" fill="#162020"/>
<path d="M225.198 188.031H221.778V206.331H225.198V188.031Z" fill="white"/>
<path d="M225.363 206.496H221.613V187.866H225.363V206.496ZM221.943 206.166H225.033V188.197H221.943V206.166Z" fill="#162020"/>
<path d="M147.389 241.092C147.323 241.092 147.26 241.057 147.227 240.995C147.18 240.906 147.213 240.795 147.302 240.748L159.535 234.212C159.576 234.19 159.624 234.184 159.668 234.196L171.811 237.44L183.972 227.694C184.029 227.648 184.108 227.64 184.173 227.675L196.405 234.212C196.494 234.259 196.528 234.37 196.48 234.459C196.433 234.548 196.322 234.582 196.232 234.534L184.107 228.055L171.968 237.784C171.923 237.82 171.863 237.833 171.807 237.818L159.644 234.568L147.475 241.07C147.448 241.085 147.418 241.092 147.389 241.092Z" fill="#162020"/>
<path d="M184.086 234.555C184.071 234.555 184.055 234.553 184.039 234.549L171.807 231.281C171.782 231.274 171.759 231.263 171.739 231.247L159.601 221.517L147.475 227.997C147.385 228.046 147.275 228.011 147.227 227.922C147.18 227.833 147.213 227.722 147.302 227.674L159.535 221.138C159.6 221.103 159.679 221.111 159.736 221.156L171.938 230.937L184.044 234.171L196.204 224.425C196.283 224.361 196.398 224.374 196.461 224.453C196.525 224.532 196.512 224.647 196.433 224.71L184.201 234.515C184.168 234.541 184.128 234.555 184.086 234.555Z" fill="#162020"/>
<path d="M148.26 241.862C149.088 241.862 149.758 241.191 149.758 240.364C149.758 239.536 149.088 238.865 148.26 238.865C147.432 238.865 146.761 239.536 146.761 240.364C146.761 241.191 147.432 241.862 148.26 241.862Z" fill="#C63434"/>
<path d="M148.26 242.044C147.333 242.044 146.578 241.289 146.578 240.362C146.578 239.435 147.333 238.681 148.26 238.681C149.187 238.681 149.942 239.435 149.942 240.362C149.942 241.289 149.187 242.044 148.26 242.044ZM148.26 239.047C147.534 239.047 146.944 239.637 146.944 240.362C146.944 241.087 147.534 241.678 148.26 241.678C148.985 241.678 149.575 241.087 149.575 240.362C149.575 239.637 148.985 239.047 148.26 239.047Z" fill="#162020"/>
<path d="M159.753 235.872C160.581 235.872 161.252 235.201 161.252 234.374C161.252 233.546 160.581 232.875 159.753 232.875C158.925 232.875 158.255 233.546 158.255 234.374C158.255 235.201 158.925 235.872 159.753 235.872Z" fill="#C63434"/>
<path d="M159.753 236.056C158.826 236.056 158.072 235.301 158.072 234.374C158.072 233.447 158.826 232.692 159.753 232.692C160.681 232.692 161.435 233.447 161.435 234.374C161.435 235.301 160.681 236.056 159.753 236.056ZM159.753 233.058C159.028 233.058 158.438 233.649 158.438 234.374C158.438 235.099 159.028 235.689 159.753 235.689C160.479 235.689 161.069 235.099 161.069 234.374C161.069 233.649 160.479 233.058 159.753 233.058Z" fill="#162020"/>
<path d="M171.793 238.593C172.621 238.593 173.292 237.922 173.292 237.094C173.292 236.267 172.621 235.596 171.793 235.596C170.966 235.596 170.295 236.267 170.295 237.094C170.295 237.922 170.966 238.593 171.793 238.593Z" fill="#C63434"/>
<path d="M171.793 238.774C170.866 238.774 170.112 238.02 170.112 237.093C170.112 236.165 170.866 235.411 171.793 235.411C172.721 235.411 173.475 236.165 173.475 237.093C173.475 238.02 172.721 238.774 171.793 238.774ZM171.793 235.777C171.068 235.777 170.478 236.367 170.478 237.093C170.478 237.818 171.068 238.408 171.793 238.408C172.519 238.408 173.109 237.818 173.109 237.093C173.109 236.367 172.519 235.777 171.793 235.777Z" fill="#162020"/>
<path d="M184.04 229.265C184.867 229.265 185.538 228.594 185.538 227.766C185.538 226.938 184.867 226.268 184.04 226.268C183.212 226.268 182.541 226.938 182.541 227.766C182.541 228.594 183.212 229.265 184.04 229.265Z" fill="#FFB8B1"/>
<path d="M184.04 229.447C183.113 229.447 182.358 228.693 182.358 227.766C182.358 226.838 183.113 226.084 184.04 226.084C184.967 226.084 185.721 226.838 185.721 227.766C185.721 228.693 184.967 229.447 184.04 229.447ZM184.04 226.45C183.314 226.45 182.724 227.04 182.724 227.766C182.724 228.491 183.314 229.081 184.04 229.081C184.765 229.081 185.355 228.491 185.355 227.766C185.355 227.04 184.765 226.45 184.04 226.45Z" fill="#162020"/>
<path d="M195.943 235.534C196.771 235.534 197.442 234.863 197.442 234.036C197.442 233.208 196.771 232.537 195.943 232.537C195.115 232.537 194.445 233.208 194.445 234.036C194.445 234.863 195.115 235.534 195.943 235.534Z" fill="#C63434"/>
<path d="M195.943 235.718C195.016 235.718 194.262 234.963 194.262 234.036C194.262 233.109 195.016 232.354 195.943 232.354C196.871 232.354 197.625 233.109 197.625 234.036C197.625 234.963 196.871 235.718 195.943 235.718ZM195.943 232.721C195.218 232.721 194.628 233.311 194.628 234.036C194.628 234.762 195.218 235.352 195.943 235.352C196.669 235.352 197.259 234.762 197.259 234.036C197.259 233.311 196.669 232.721 195.943 232.721Z" fill="#162020"/>
<path d="M148.26 228.785C149.088 228.785 149.758 228.114 149.758 227.287C149.758 226.459 149.088 225.788 148.26 225.788C147.432 225.788 146.761 226.459 146.761 227.287C146.761 228.114 147.432 228.785 148.26 228.785Z" fill="#FFB8B1"/>
<path d="M148.26 228.968C147.333 228.968 146.578 228.213 146.578 227.286C146.578 226.359 147.333 225.604 148.26 225.604C149.187 225.604 149.942 226.359 149.942 227.286C149.942 228.213 149.187 228.968 148.26 228.968ZM148.26 225.971C147.535 225.971 146.945 226.561 146.945 227.286C146.945 228.012 147.535 228.602 148.26 228.602C148.985 228.602 149.576 228.012 149.576 227.286C149.576 226.561 148.985 225.971 148.26 225.971Z" fill="#162020"/>
<path d="M159.753 222.797C160.581 222.797 161.251 222.126 161.251 221.298C161.251 220.471 160.581 219.8 159.753 219.8C158.925 219.8 158.254 220.471 158.254 221.298C158.254 222.126 158.925 222.797 159.753 222.797Z" fill="#FFB8B1"/>
<path d="M159.753 222.98C158.826 222.98 158.071 222.226 158.071 221.299C158.071 220.371 158.826 219.617 159.753 219.617C160.68 219.617 161.435 220.371 161.435 221.299C161.435 222.226 160.68 222.98 159.753 222.98ZM159.753 219.983C159.028 219.983 158.438 220.573 158.438 221.299C158.438 222.024 159.028 222.614 159.753 222.614C160.478 222.614 161.068 222.024 161.068 221.299C161.068 220.573 160.478 219.983 159.753 219.983Z" fill="#162020"/>
<path d="M171.794 232.059C172.621 232.059 173.292 231.388 173.292 230.56C173.292 229.732 172.621 229.062 171.794 229.062C170.966 229.062 170.295 229.732 170.295 230.56C170.295 231.388 170.966 232.059 171.794 232.059Z" fill="#FFB8B1"/>
<path d="M171.794 232.242C170.866 232.242 170.112 231.488 170.112 230.561C170.112 229.633 170.866 228.879 171.794 228.879C172.721 228.879 173.475 229.633 173.475 230.561C173.475 231.488 172.721 232.242 171.794 232.242ZM171.794 229.245C171.068 229.245 170.478 229.835 170.478 230.561C170.478 231.286 171.068 231.876 171.794 231.876C172.519 231.876 173.109 231.286 173.109 230.561C173.109 229.835 172.519 229.245 171.794 229.245Z" fill="#162020"/>
<path d="M184.04 235.534C184.867 235.534 185.538 234.863 185.538 234.036C185.538 233.208 184.867 232.537 184.04 232.537C183.212 232.537 182.541 233.208 182.541 234.036C182.541 234.863 183.212 235.534 184.04 235.534Z" fill="#C63434"/>
<path d="M184.04 235.718C183.112 235.718 182.358 234.963 182.358 234.036C182.358 233.109 183.112 232.354 184.04 232.354C184.967 232.354 185.721 233.109 185.721 234.036C185.721 234.963 184.967 235.718 184.04 235.718ZM184.04 232.721C183.314 232.721 182.724 233.311 182.724 234.036C182.724 234.762 183.314 235.352 184.04 235.352C184.765 235.352 185.355 234.762 185.355 234.036C185.355 233.311 184.765 232.721 184.04 232.721Z" fill="#162020"/>
<path d="M195.943 226.265C196.771 226.265 197.441 225.594 197.441 224.766C197.441 223.938 196.771 223.268 195.943 223.268C195.115 223.268 194.444 223.938 194.444 224.766C194.444 225.594 195.115 226.265 195.943 226.265Z" fill="#FFB8B1"/>
<path d="M195.943 226.448C195.016 226.448 194.261 225.694 194.261 224.767C194.261 223.839 195.016 223.085 195.943 223.085C196.87 223.085 197.625 223.839 197.625 224.767C197.625 225.694 196.87 226.448 195.943 226.448ZM195.943 223.451C195.218 223.451 194.628 224.041 194.628 224.767C194.628 225.492 195.218 226.082 195.943 226.082C196.669 226.082 197.259 225.492 197.259 224.767C197.259 224.041 196.669 223.451 195.943 223.451Z" fill="#162020"/>
</g>
<defs>
<clipPath id="clip0_30_9297">
<rect width="780" height="440" fill="white"/>
</clipPath>
</defs>
</svg>
