<svg width="780" height="440" viewBox="0 0 780 440" fill="none" xmlns="http://www.w3.org/2000/svg">
<g clip-path="url(#clip0_28_8326)">
<path d="M780 0H0V440H780V0Z" fill="#DFD9FF"/>
<path d="M472.803 356.874H102.874C95.7308 356.874 90 351.06 90 344H485.677C485.677 351.143 479.946 356.874 472.803 356.874Z" fill="#C7DBF9" stroke="#040404" stroke-width="1.5" stroke-miterlimit="10"/>
<path d="M460.176 343.499H114V132.787C114 125.146 120.146 119 127.787 119H446.471C454.113 119 460.259 125.146 460.259 132.787V343.499H460.176Z" fill="#C7DBF9" stroke="#040404" stroke-width="1.5" stroke-miterlimit="10"/>
<path d="M128.485 129H446.256C448.747 129 450.741 130.91 450.741 133.153V330.991C450.741 333.317 448.747 335.144 446.256 335.144H128.485C125.993 335.144 124 333.234 124 330.991V133.153C124 130.827 125.993 129 128.485 129Z" fill="#A1C2F8" stroke="#040404" stroke-width="1.5" stroke-miterlimit="10"/>
<path d="M311.155 349.482H263.482C260.409 349.482 258 346.99 258 344H316.72C316.72 346.99 314.228 349.482 311.155 349.482Z" fill="#A1C2F8" stroke="#040404" stroke-width="1.5" stroke-miterlimit="10"/>
<path d="M665.894 146.947C665.894 119.363 643.531 97 615.947 97C588.363 97 566 119.363 566 146.947V188.081H586.371V147.005C586.371 130.356 599.88 116.848 616.529 116.848C633.178 116.848 646.686 130.356 646.686 147.005V156.081H665.894V146.947Z" fill="#FFBC00" stroke="#040404" stroke-width="1.5" stroke-linecap="round" stroke-linejoin="round"/>
<path d="M683.113 184H550.169C546.199 184 543 187.213 543 191.169V312.35C543 316.32 546.213 319.519 550.169 319.519H683.113C687.083 319.519 690.282 316.305 690.282 312.35V191.169C690.282 187.213 687.069 184 683.113 184Z" fill="#FFBC00" stroke="#040404" stroke-width="1.5" stroke-linecap="round" stroke-linejoin="round"/>
<path d="M625.779 252.457L628.775 290.335H603.227L606.222 252.457C600.115 249.025 596 242.496 596 235.008C596 223.957 604.957 215 616.008 215C627.059 215 636.016 223.957 636.016 235.008C636.016 242.511 631.886 249.04 625.794 252.457H625.779Z" fill="#DFD9FF" stroke="#040404" stroke-width="1.5" stroke-linecap="round" stroke-linejoin="round"/>
<path fill-rule="evenodd" clip-rule="evenodd" d="M421.939 184.123C445.082 184.123 464.883 198.433 472.976 218.689H557.264L581.412 238.844L557.264 259L544.16 248.064L531.057 259L517.954 248.064L504.851 259H473.147C465.166 279.485 445.247 294 421.939 294C391.597 294 367 269.403 367 239.061C367 208.72 391.597 184.123 421.939 184.123ZM420.787 238.607C420.787 229.553 413.447 222.213 404.393 222.213C395.34 222.213 388 229.553 388 238.607C388 247.66 395.34 255 404.393 255C413.447 255 420.787 247.66 420.787 238.607Z" fill="#FFE16E"/>
<path d="M472.976 218.689L472.279 218.967L472.468 219.439H472.976V218.689ZM557.264 218.689L557.744 218.113L557.535 217.939H557.264V218.689ZM581.412 238.844L581.893 239.42L582.583 238.844L581.893 238.268L581.412 238.844ZM557.264 259L556.783 259.576L557.264 259.977L557.744 259.576L557.264 259ZM544.16 248.064L544.641 247.488L544.16 247.087L543.68 247.488L544.16 248.064ZM531.057 259L530.577 259.576L531.057 259.977L531.538 259.576L531.057 259ZM517.954 248.064L518.435 247.488L517.954 247.087L517.474 247.488L517.954 248.064ZM504.851 259V259.75H505.123L505.332 259.576L504.851 259ZM473.147 259V258.25H472.635L472.448 258.728L473.147 259ZM473.672 218.41C465.47 197.88 445.399 183.373 421.939 183.373V184.873C444.765 184.873 464.297 198.987 472.279 218.967L473.672 218.41ZM557.264 217.939H472.976V219.439H557.264V217.939ZM581.893 238.268L557.744 218.113L556.783 219.264L580.932 239.42L581.893 238.268ZM557.744 259.576L581.893 239.42L580.932 238.268L556.783 258.424L557.744 259.576ZM543.68 248.639L556.783 259.576L557.744 258.424L544.641 247.488L543.68 248.639ZM531.538 259.576L544.641 248.639L543.68 247.488L530.577 258.424L531.538 259.576ZM517.474 248.639L530.577 259.576L531.538 258.424L518.435 247.488L517.474 248.639ZM505.332 259.576L518.435 248.639L517.474 247.488L504.37 258.424L505.332 259.576ZM473.147 259.75H504.851V258.25H473.147V259.75ZM421.939 294.75C445.567 294.75 465.756 280.035 473.846 259.272L472.448 258.728C464.575 278.934 444.928 293.25 421.939 293.25V294.75ZM366.25 239.061C366.25 269.817 391.183 294.75 421.939 294.75V293.25C392.011 293.25 367.75 268.989 367.75 239.061H366.25ZM421.939 183.373C391.183 183.373 366.25 208.305 366.25 239.061H367.75C367.75 209.134 392.011 184.873 421.939 184.873V183.373ZM404.393 222.963C413.033 222.963 420.037 229.967 420.037 238.607H421.537C421.537 229.139 413.861 221.463 404.393 221.463V222.963ZM388.75 238.607C388.75 229.967 395.754 222.963 404.393 222.963V221.463C394.925 221.463 387.25 229.139 387.25 238.607H388.75ZM404.393 254.25C395.754 254.25 388.75 247.246 388.75 238.607H387.25C387.25 248.075 394.925 255.75 404.393 255.75V254.25ZM420.037 238.607C420.037 247.246 413.033 254.25 404.393 254.25V255.75C413.861 255.75 421.537 248.075 421.537 238.607H420.037Z" fill="#040404"/>
<path d="M324.561 112H100V309.208C100 311.417 101.791 313.208 104 313.208H320.561C322.771 313.208 324.561 311.417 324.561 309.208V112Z" fill="white" stroke="#040404" stroke-width="1.5" stroke-miterlimit="10"/>
<path d="M320.561 91H104C101.791 91 100 92.7909 100 95V112.523H324.561V95C324.561 92.7909 322.771 91 320.561 91Z" fill="#A1C2F8" stroke="#040404" stroke-width="1.5" stroke-miterlimit="10"/>
<path d="M111.652 106.304C114.221 106.304 116.304 104.221 116.304 101.652C116.304 99.0827 114.221 97 111.652 97C109.083 97 107 99.0827 107 101.652C107 104.221 109.083 106.304 111.652 106.304Z" fill="white" stroke="#040404" stroke-width="1.5" stroke-miterlimit="10"/>
<path d="M128.652 106.304C131.221 106.304 133.304 104.221 133.304 101.652C133.304 99.0827 131.221 97 128.652 97C126.083 97 124 99.0827 124 101.652C124 104.221 126.083 106.304 128.652 106.304Z" fill="white" stroke="#040404" stroke-width="1.5" stroke-miterlimit="10"/>
<path d="M144.652 106.304C147.221 106.304 149.304 104.221 149.304 101.652C149.304 99.0827 147.221 97 144.652 97C142.083 97 140 99.0827 140 101.652C140 104.221 142.083 106.304 144.652 106.304Z" fill="white" stroke="#040404" stroke-width="1.5" stroke-miterlimit="10"/>
<path d="M150.072 298.144C168.337 298.144 183.144 283.337 183.144 265.072C183.144 246.807 168.337 232 150.072 232C131.807 232 117 246.807 117 265.072C117 283.337 131.807 298.144 150.072 298.144Z" fill="white" stroke="#040404" stroke-width="1.5" stroke-miterlimit="10"/>
<path d="M152.347 272H146V279.265H152.347V272Z" fill="#9EBFF5" stroke="#040404" stroke-width="1.5" stroke-miterlimit="10"/>
<path d="M150.321 246H149V250.935H150.321V246Z" fill="#9EBFF5" stroke="#040404" stroke-width="1.5" stroke-miterlimit="10"/>
<path d="M149.203 245.406C150.42 245.406 151.406 244.42 151.406 243.203C151.406 241.986 150.42 241 149.203 241C147.986 241 147 241.986 147 243.203C147 244.42 147.986 245.406 149.203 245.406Z" fill="#9EBFF5" stroke="#040404" stroke-width="1.5" stroke-miterlimit="10"/>
<path d="M169.505 256H165V266.264H169.505V256Z" fill="#9EBFF5" stroke="#040404" stroke-width="1.5" stroke-miterlimit="10"/>
<path d="M133.505 256H129V266.264H133.505V256Z" fill="#9EBFF5" stroke="#040404" stroke-width="1.5" stroke-miterlimit="10"/>
<path d="M165.905 250H134V273.618H165.905V250Z" fill="#C4D8F6" stroke="#040404" stroke-width="1.5" stroke-miterlimit="10"/>
<path d="M145.005 263C145.005 265.348 146.909 267.252 149.257 267.252C151.604 267.252 153.509 265.348 153.509 263H145H145.005Z" fill="white" stroke="#040404" stroke-width="1.5" stroke-miterlimit="10"/>
<path d="M159.17 259.085C159.17 257.38 157.79 256 156.085 256C154.38 256 153 257.38 153 259.085" stroke="#040404" stroke-width="1.5" stroke-miterlimit="10"/>
<path d="M146.17 259.085C146.17 257.38 144.79 256 143.085 256C141.38 256 140 257.38 140 259.085" stroke="#040404" stroke-width="1.5" stroke-miterlimit="10"/>
<path d="M165.154 294.909C165.235 294.271 165.195 294.258 165.195 293.597C165.195 284.984 158.21 278 149.597 278C140.984 278 134 284.984 134 293.597C134 293.878 134.009 294.154 134.023 294.425C135.466 295.253 137.438 296.239 139.894 297.049C140.975 297.406 144.626 298.542 149.321 298.632C156.473 298.772 162.164 296.416 165.159 294.905L165.154 294.909Z" fill="#C4D8F6" stroke="#040404" stroke-width="1.5" stroke-miterlimit="10"/>
<path d="M185.391 135L156.42 160.82L142.686 154.438L112 174.554" stroke="#040404" stroke-width="1.5" stroke-miterlimit="10"/>
<path d="M136.761 176.906L123 177L123.165 201.078L136.926 200.984L136.761 176.906Z" fill="#FFE16E" stroke="#040404" stroke-width="1.5" stroke-miterlimit="10"/>
<path d="M163.761 165.906L150 166L150.245 201.738L164.006 201.644L163.761 165.906Z" fill="#DD9903" stroke="#040404" stroke-width="1.5" stroke-miterlimit="10"/>
<path d="M190.761 151.906L177 152L177.336 201.02L191.097 200.926L190.761 151.906Z" fill="#FFBC00" stroke="#040404" stroke-width="1.5" stroke-miterlimit="10"/>
<path d="M112 143V201.008H208.419" stroke="#040404" stroke-width="1.5" stroke-miterlimit="10"/>
<path d="M179 134L186.219 134.705L187.097 141.219" stroke="#040404" stroke-width="1.5" stroke-miterlimit="10" stroke-linecap="round"/>
<path d="M208 297.174C210.829 289.586 213.411 281.706 216.24 274.118C216.732 272.854 217.224 271.492 218.023 270.811C219.991 269.06 222.328 271.686 223.804 274.313C225.341 276.939 227.124 280.052 229.338 279.469C230.568 279.177 231.552 277.718 232.413 276.258C235.426 271.492 238.254 266.53 240.96 261.472C241.882 259.721 242.866 257.872 244.158 256.997C248.647 253.884 253.074 262.834 257.993 262.639C262.913 262.347 265.68 253.3 270.353 250.771C274.781 248.339 279.454 252.23 283.943 254.468C285.481 255.246 287.141 255.732 288.678 255.149C289.908 254.662 291.015 253.398 292.06 252.23C295.934 247.853 299.808 243.378 303.682 239V297.466L208 297.174Z" fill="#DD9903" stroke="#040404" stroke-width="1.5" stroke-miterlimit="10" stroke-linecap="round" stroke-linejoin="round"/>
<path d="M208 297.6C211.321 293.223 213.35 289.721 216.793 289.234C220.606 288.651 224.357 290.985 228.17 290.11C233.519 288.943 237.885 281.549 243.297 281.452C246.371 281.452 249.2 283.689 252.213 284.759C257.932 286.802 263.835 284.176 269.247 280.576C274.596 276.977 279.762 272.405 285.481 270.167C286.465 269.778 287.51 269.486 288.555 269.584C289.478 269.681 290.339 270.167 291.261 270.556C295.381 272.113 299.685 270.556 303.805 269V297.795" fill="#FFE16E"/>
<path d="M208 297.6C211.321 293.223 213.35 289.721 216.793 289.234C220.606 288.651 224.357 290.985 228.17 290.11C233.519 288.943 237.885 281.549 243.297 281.452C246.371 281.452 249.2 283.689 252.213 284.759C257.932 286.802 263.835 284.176 269.247 280.576C274.596 276.977 279.762 272.405 285.481 270.167C286.465 269.778 287.51 269.486 288.555 269.584C289.478 269.681 290.339 270.167 291.261 270.556C295.381 272.113 299.685 270.556 303.805 269V297.795" stroke="#040404" stroke-width="1.5" stroke-miterlimit="10"/>
<path d="M303.744 297.245H208V213" stroke="#040404" stroke-width="1.5" stroke-miterlimit="10" stroke-linecap="round" stroke-linejoin="round"/>
<path d="M261 171L294.941 175.341C293.042 190.487 281.236 202.546 266.211 204.838L261 171Z" fill="#FFBC00" stroke="#040404" stroke-width="1.5" stroke-miterlimit="10"/>
<path d="M291.462 166.231C291.462 159.243 289.357 152.731 285.765 147.324C279.637 138.081 269.15 132 257.231 132C238.324 132 223 147.324 223 166.231C223 185.138 238.324 200.462 257.231 200.462C258.999 200.462 260.749 200.322 262.451 200.06L257.231 166.222L291.172 170.563C291.369 169.141 291.462 167.7 291.462 166.231Z" fill="#DD9903" stroke="#040404" stroke-width="1.5" stroke-miterlimit="10"/>
</g>
<defs>
<clipPath id="clip0_28_8326">
<rect width="780" height="440" fill="white"/>
</clipPath>
</defs>
</svg>
