<svg width="780" height="441" viewBox="0 0 780 441" fill="none" xmlns="http://www.w3.org/2000/svg">
<path d="M780 1H0V441H780V1Z" fill="#B1F4E7"/>
<path d="M293.988 190.437V294.588H494.918V190.437H447.299V132.363H341.221V190.437H293.988Z" fill="white"/>
<path d="M447.4 132.564H341.191V294.48H447.4V132.564Z" stroke="#040404" stroke-width="1.8525" stroke-miterlimit="10"/>
<path d="M495.107 189.669H447.4V294.481H495.107V189.669Z" stroke="#040404" stroke-width="1.8525" stroke-miterlimit="10"/>
<path d="M341.191 189.669H293.483V294.481H341.191V189.669Z" stroke="#040404" stroke-width="1.8525" stroke-miterlimit="10"/>
<path d="M364.996 208.704H422.342" stroke="#040404" stroke-width="1.8525" stroke-miterlimit="10"/>
<path d="M364.996 219.667H422.342" stroke="#040404" stroke-width="1.8525" stroke-miterlimit="10"/>
<path d="M364.996 227.736H422.342" stroke="#040404" stroke-width="1.8525" stroke-miterlimit="10"/>
<path d="M364.996 238.701H422.342" stroke="#040404" stroke-width="1.8525" stroke-miterlimit="10"/>
<path d="M447.4 218.774H469.808" stroke="#040404" stroke-width="1.8525" stroke-miterlimit="10"/>
<path d="M447.4 229.713H469.808" stroke="#040404" stroke-width="1.8525" stroke-miterlimit="10"/>
<path d="M447.4 237.785H469.808" stroke="#040404" stroke-width="1.8525" stroke-miterlimit="10"/>
<path d="M447.4 248.748H469.808" stroke="#040404" stroke-width="1.8525" stroke-miterlimit="10"/>
<path d="M318.047 218.774H340.455" stroke="#040404" stroke-width="1.8525" stroke-miterlimit="10"/>
<path d="M318.047 229.713H340.455" stroke="#040404" stroke-width="1.8525" stroke-miterlimit="10"/>
<path d="M318.047 237.785H340.455" stroke="#040404" stroke-width="1.8525" stroke-miterlimit="10"/>
<path d="M318.047 248.748H340.455" stroke="#040404" stroke-width="1.8525" stroke-miterlimit="10"/>
<path d="M406.679 257.712H380.658V294.721H406.679V257.712Z" stroke="#040404" stroke-width="1.8525" stroke-miterlimit="10"/>
<path d="M92 294.721H688.874" stroke="#040404" stroke-width="1.8525" stroke-miterlimit="10"/>
<path d="M387.645 195.692H399.692V182.681H412.704V170.634H399.692V157.623H387.645V170.634H374.634V182.681H387.645V195.692Z" fill="#EC9AF1" stroke="#040404" stroke-width="1.8525" stroke-miterlimit="10"/>
<path d="M409.627 12.4215C402.052 10.702 394.236 14.4742 388.986 19.5417C381.45 12.7624 373.33 10.6491 365.407 13.4289C352.871 16.9587 347.644 32.9031 353.303 44.1439C359.945 59.3082 375.571 69.4505 387.888 77.1612C388.509 77.5552 389.304 77.5626 389.933 77.1847C404.332 68.943 423.693 54.2711 426.526 37.2132C427.594 31.9867 425.707 16.0724 409.619 12.4215H409.627Z" fill="white" stroke="#040404" stroke-width="1.8525" stroke-miterlimit="10" stroke-linejoin="round"/>
<path d="M354.901 47.3789H373.503L377.563 42.1296L382.298 49.9163L386.865 33.1689L392.183 59.8769L398.196 41.1525L402.423 47.3789H422.564" fill="white"/>
<path d="M354.901 47.3789H373.503L377.563 42.1296L382.298 49.9163L386.865 33.1689L392.183 59.8769L398.196 41.1525L402.423 47.3789H422.564" stroke="#040404" stroke-width="1.8525" stroke-miterlimit="10" stroke-linejoin="round"/>
<path d="M266.35 77.5073C266.639 77.5073 266.85 77.5073 267.081 77.5073C273.521 77.5073 279.961 77.5073 286.402 77.5073C287.863 77.5073 289.131 77.9877 290.15 79.0263C292.015 80.9294 291.861 83.9478 289.804 85.6583C289.324 86.0621 288.805 86.4277 288.285 86.8117C288.132 86.9278 287.977 87.0625 287.746 87.2354C288.478 87.6577 289.151 88.0233 289.804 88.4074C290.977 89.1002 291.727 90.1191 292.015 91.4455C292.515 93.6561 291.323 95.8865 289.169 96.7313C288.651 96.9437 288.094 97.0783 287.555 97.2512C287.324 97.3278 287.113 97.4044 286.805 97.5007C287.228 98.0774 287.612 98.5776 287.997 99.0963C289.477 101.057 289.342 103.537 287.69 105.248C286.92 106.036 285.959 106.459 284.863 106.613C284.287 106.69 283.71 106.805 283.076 106.921C283.325 107.382 283.536 107.786 283.729 108.208C283.96 108.708 284.248 109.189 284.382 109.709C285.228 112.649 283.037 115.571 279.981 115.571C271.272 115.571 262.564 115.571 253.854 115.571C251.72 115.571 249.799 114.841 248.068 113.572C247.492 113.149 246.877 112.784 246.242 112.418C246.011 112.284 245.915 112.169 245.915 111.9C245.915 111.496 245.915 111.073 245.915 110.669C245.915 103.192 245.915 95.7322 245.915 88.2542C245.915 87.8306 246.011 87.5429 246.357 87.2922C246.626 87.1007 246.838 86.85 247.106 86.6771C248.549 85.7361 249.279 84.2553 250.068 82.7943C252.777 77.7184 255.527 72.6822 258.257 67.6071C258.987 66.2422 259.276 64.7811 259.161 63.224C258.949 60.6479 258.776 58.0911 258.565 55.515C258.526 54.9959 258.507 54.477 258.43 53.977C258.392 53.6503 258.507 53.4965 258.776 53.3812C260.257 52.7467 261.66 52.9198 262.986 53.7849C264.139 54.5347 265.005 55.5535 265.697 56.7069C267.273 59.3214 268.138 62.1666 268.024 65.2233C267.965 66.5882 267.715 67.9531 267.504 69.2988C267.12 71.8364 266.716 74.3543 266.332 76.8737C266.312 77.0466 266.312 77.2195 266.293 77.469L266.35 77.5073Z" fill="white" stroke="#040404" stroke-width="1.8525" stroke-miterlimit="10"/>
<path d="M243.604 82.2207H226.879C225.36 82.2207 224.13 83.4508 224.13 84.9698V116.093C224.13 117.612 225.36 118.842 226.879 118.842H243.604C245.123 118.842 246.353 117.612 246.353 116.093V84.9698C246.353 83.4508 245.123 82.2207 243.604 82.2207Z" fill="#205BC3" stroke="#040404" stroke-width="1.8525" stroke-miterlimit="10"/>
<path d="M182.364 231.121H224.391V253.139C224.391 257.541 220.914 261.124 216.62 261.124H190.133C185.849 261.124 182.364 257.551 182.364 253.139V231.121Z" fill="#205BC3" stroke="#040404" stroke-width="1.8525" stroke-miterlimit="10" stroke-linejoin="round"/>
<path d="M182.364 238.354H224.381" stroke="#040404" stroke-width="1.8525" stroke-miterlimit="10" stroke-linejoin="round"/>
<path d="M203.377 231.123V200.701C203.377 200.701 202.242 184.747 220.66 184.747" stroke="#040404" stroke-width="1.8525" stroke-miterlimit="10" stroke-linejoin="round"/>
<path d="M203.378 205.804C203.378 205.804 169.938 210.702 170.146 182.612C170.146 182.612 203.368 175.801 203.368 205.804H203.378Z" fill="white" stroke="#040404" stroke-width="1.8525" stroke-miterlimit="10" stroke-linejoin="round"/>
<path d="M204.049 212.419C204.049 212.419 237.48 217.315 237.271 189.225C237.271 189.225 204.049 182.416 204.049 212.419Z" fill="white" stroke="#040404" stroke-width="1.8525" stroke-miterlimit="10" stroke-linejoin="round"/>
<path d="M276.727 340.032C276.727 330.061 268.642 321.977 258.671 321.977C248.7 321.977 240.615 330.061 240.615 340.032V349.046H247.98V340.053C247.98 334.035 252.863 329.152 258.881 329.152C264.899 329.152 269.782 334.035 269.782 340.053V349.046H276.727V340.032Z" fill="white" stroke="#040404" stroke-width="1.8525" stroke-linecap="round" stroke-linejoin="round"/>
<path d="M282.862 347.747H234.802C233.367 347.747 232.211 348.909 232.211 350.338V394.146C232.211 395.581 233.373 396.737 234.802 396.737H282.862C284.297 396.737 285.453 395.575 285.453 394.146V350.338C285.453 348.909 284.292 347.747 282.862 347.747Z" fill="white" stroke="#040404" stroke-width="1.8525" stroke-linecap="round" stroke-linejoin="round"/>
<path d="M262.104 372.503L263.187 386.197H253.952L255.034 372.503C252.827 371.264 251.339 368.903 251.339 366.196C251.339 362.201 254.577 358.963 258.572 358.963C262.567 358.963 265.804 362.201 265.804 366.196C265.804 368.908 264.312 371.268 262.109 372.503H262.104Z" fill="#205BC3" stroke="#040404" stroke-width="1.8525" stroke-linecap="round" stroke-linejoin="round"/>
<path d="M381.419 364.676L352.199 415.195C348.854 421.004 353.079 428.221 359.768 428.221H418.032C424.72 428.221 428.944 421.004 425.6 415.195L396.381 364.676C393.036 358.868 384.763 358.868 381.419 364.676Z" fill="white" stroke="#040404" stroke-width="1.8525" stroke-linecap="round" stroke-linejoin="round"/>
<path d="M388.631 382.282V406.221" stroke="#040404" stroke-width="1.8525" stroke-miterlimit="10" stroke-linecap="round" stroke-linejoin="round"/>
<path d="M389.471 412.73C389.471 413.093 389.177 413.388 388.813 413.388C388.45 413.388 388.156 413.093 388.156 412.73C388.156 412.366 388.45 412.071 388.813 412.071C389.177 412.071 389.471 412.366 389.471 412.73Z" fill="#040404" stroke="#040404" stroke-width="1.8525"/>
<path d="M552.676 66.1201H514.068V104.172H552.676V66.1201Z" fill="#205BC3"/>
<path d="M563.212 66.2467L542.789 50.7097C537.178 46.4457 529.41 46.4457 523.799 50.7097L503.395 66.2467C500.201 68.6291 498.836 72.7551 499.942 76.6044L505.121 93.8685C508.85 106.522 517.274 117.259 528.668 123.923C531.5 125.581 535.003 125.581 537.835 123.923C549.211 117.294 557.636 106.609 561.399 94.0068L566.579 76.7428C567.769 72.8931 566.423 68.6981 563.212 66.2467ZM550.403 90.9329C550.403 91.3997 550.212 91.8307 549.902 92.1593C549.591 92.4865 549.142 92.6594 548.676 92.6594H539.595V101.74C539.595 102.206 539.406 102.638 539.095 102.966C538.784 103.294 538.318 103.467 537.87 103.467H528.633C527.684 103.467 526.907 102.69 526.907 101.74V92.6421H517.827C516.877 92.6421 516.1 91.8653 516.1 90.9156V81.6803C516.1 80.7306 516.877 79.9538 517.827 79.9538H526.941V70.8733C526.941 69.9238 527.718 69.147 528.668 69.147H537.922C538.387 69.147 538.818 69.3368 539.147 69.6477C539.475 69.9584 539.647 70.4072 539.647 70.8733V79.971H548.745C549.211 79.971 549.643 80.1612 549.97 80.4712C550.299 80.7824 550.472 81.248 550.472 81.6976L550.403 90.9329Z" fill="white" stroke="#040404" stroke-width="1.8525" stroke-miterlimit="10"/>
<path d="M595.599 201.683H543.686C540.681 201.683 538.249 204.114 538.249 207.12V240.536C538.249 243.54 540.681 245.972 543.686 245.972H548.549V255.072L557.647 245.972H595.599C598.605 245.972 601.036 243.54 601.036 240.536V207.12C601.036 204.114 598.605 201.683 595.599 201.683Z" fill="white" stroke="#040404" stroke-width="1.8525" stroke-linecap="round" stroke-linejoin="round"/>
<path d="M558.551 228.242C560.551 228.242 562.172 226.621 562.172 224.622C562.172 222.622 560.551 221.002 558.551 221.002C556.552 221.002 554.931 222.622 554.931 224.622C554.931 226.621 556.552 228.242 558.551 228.242Z" fill="#205BC3" stroke="#040404" stroke-width="1.8525" stroke-linecap="round" stroke-linejoin="round"/>
<path d="M571.043 187.61H622.956C625.961 187.61 628.393 190.042 628.393 193.048V226.463C628.393 229.469 625.961 231.901 622.956 231.901H618.093V240.999L608.994 231.901H571.043C568.037 231.901 565.605 229.469 565.605 226.463V193.048C565.605 190.042 568.037 187.61 571.043 187.61Z" fill="white" stroke="#040404" stroke-width="1.8525" stroke-linecap="round" stroke-linejoin="round"/>
<path d="M584.934 214.165C586.934 214.165 588.554 212.543 588.554 210.544C588.554 208.544 586.934 206.924 584.934 206.924C582.935 206.924 581.313 208.544 581.313 210.544C581.313 212.543 582.935 214.165 584.934 214.165Z" fill="#205BC3" stroke="#040404" stroke-width="1.8525" stroke-miterlimit="10" stroke-linejoin="round"/>
<path d="M596.502 214.165C598.501 214.165 600.123 212.543 600.123 210.544C600.123 208.544 598.501 206.924 596.502 206.924C594.503 206.924 592.882 208.544 592.882 210.544C592.882 212.543 594.503 214.165 596.502 214.165Z" fill="#205BC3" stroke="#040404" stroke-width="1.8525" stroke-miterlimit="10" stroke-linejoin="round"/>
<path d="M608.074 214.165C610.074 214.165 611.695 212.543 611.695 210.544C611.695 208.544 610.074 206.924 608.074 206.924C606.075 206.924 604.455 208.544 604.455 210.544C604.455 212.543 606.075 214.165 608.074 214.165Z" fill="#205BC3" stroke="#040404" stroke-width="1.8525" stroke-miterlimit="10" stroke-linejoin="round"/>
<path fill-rule="evenodd" clip-rule="evenodd" d="M508.046 366.85C506.797 366.094 505.724 365.035 504.95 363.692L498.581 352.66C496.119 348.398 497.582 342.939 501.845 340.478C506.108 338.018 511.566 339.48 514.027 343.743L520.396 354.774C521.195 356.158 521.586 357.667 521.59 359.177C521.59 359.177 518.195 358.665 513.696 361.262C511.274 362.661 509.372 364.607 508.046 366.85ZM525.937 366.928C527.299 367.691 528.506 368.822 529.346 370.275L529.881 371.202L533.882 371.772L535.569 367.918L535.026 366.977C533.34 364.057 530.846 361.879 527.99 360.576C528.289 357.451 527.65 354.203 525.964 351.282L519.571 340.209C515.242 332.743 505.702 330.187 498.228 334.502C490.768 338.81 488.198 348.357 492.513 355.832L498.906 366.905C500.591 369.824 503.085 372.001 505.941 373.306C505.643 376.431 506.281 379.679 507.967 382.6L514.36 393.672C518.667 401.133 528.216 403.703 535.69 399.388C543.149 395.08 545.72 385.532 541.404 378.058L539.847 375.359L538.226 379.008L534.157 378.643L535.709 381.328C538.17 385.591 536.706 391.049 532.444 393.51C528.181 395.971 522.724 394.509 520.262 390.246L513.894 379.215C513.07 377.79 512.691 376.237 512.699 374.718L512.865 374.716C515.373 374.652 517.918 373.976 520.258 372.625C522.707 371.211 524.628 369.234 525.952 366.956L525.937 366.928Z" fill="white"/>
<path d="M525.922 366.937C524.599 369.215 522.677 371.192 520.227 372.606C512.767 376.914 503.213 374.365 498.898 366.892L492.505 355.819C488.212 348.351 490.768 338.81 498.228 334.503C505.688 330.196 515.242 332.744 519.557 340.218L525.951 351.291C527.637 354.211 528.275 357.459 527.976 360.585" stroke="#040404" stroke-width="1.8525" stroke-miterlimit="10"/>
<path d="M517.117 366.964C512.855 369.426 507.396 367.964 504.935 363.7L498.567 352.669C496.106 348.406 497.568 342.949 501.831 340.487C506.093 338.026 511.552 339.488 514.013 343.751L520.382 354.782C521.181 356.167 521.571 357.675 521.576 359.185" stroke="#040404" stroke-width="1.8525" stroke-miterlimit="10"/>
<path d="M512.692 374.704C512.691 376.236 513.07 377.789 513.885 379.2L520.254 390.231C522.715 394.495 528.173 395.957 532.436 393.496C536.699 391.034 538.161 385.577 535.7 381.314L534.15 378.629L538.217 378.993L539.838 375.344L541.397 378.043C545.703 385.503 543.156 395.058 535.681 399.373C528.222 403.679 518.667 401.132 514.352 393.657L507.959 382.584C506.274 379.665 505.634 376.416 505.934 373.291" stroke="#040404" stroke-width="1.8525" stroke-miterlimit="10"/>
<path d="M517.149 367.019C521.412 364.558 526.871 366.02 529.331 370.283L529.867 371.211L533.868 371.78L535.555 367.927L535.012 366.984C530.704 359.525 521.157 356.955 513.682 361.27C511.261 362.668 509.359 364.616 508.032 366.857" stroke="#040404" stroke-width="1.8525" stroke-miterlimit="10"/>
<path d="M543 370.272L549.338 366.611" stroke="#040404" stroke-width="1.8525" stroke-miterlimit="10" stroke-linecap="round"/>
<path d="M539.206 365.874L542.857 359.54" stroke="#040404" stroke-width="1.8525" stroke-miterlimit="10" stroke-linecap="round"/>
<path d="M544.531 375.994L551.849 375.977" stroke="#040404" stroke-width="1.8525" stroke-miterlimit="10" stroke-linecap="round"/>
<g style="mix-blend-mode:multiply">
<path d="M341.098 189.592H327.167V294.48H341.098V189.592Z" fill="#D9D9D9"/>
</g>
<g style="mix-blend-mode:multiply">
<path d="M461.332 189.592H447.4V294.48H461.332V189.592Z" fill="#D9D9D9"/>
</g>
<path d="M393.591 257.617V294.722" stroke="#040404" stroke-width="1.8525"/>
<path d="M393.051 334.94C427.496 334.94 455.419 307.02 455.419 272.579C455.419 238.137 427.496 210.217 393.051 210.217C358.607 210.217 330.684 238.137 330.684 272.579C330.684 307.02 358.607 334.94 393.051 334.94Z" fill="#FFD943" stroke="#162020" stroke-width="1.8525" stroke-miterlimit="10"/>
<path d="M398.237 286.125H386.27V299.824H398.237V286.125Z" fill="#9EBFF5" stroke="#162020" stroke-width="1.8525" stroke-miterlimit="10"/>
<path d="M393.537 235.746H391.047V245.052H393.537V235.746Z" fill="#9EBFF5" stroke="#162020" stroke-width="1.8525" stroke-miterlimit="10"/>
<path d="M392.257 235.781C394.552 235.781 396.411 233.921 396.411 231.627C396.411 229.332 394.552 227.473 392.257 227.473C389.963 227.473 388.103 229.332 388.103 231.627C388.103 233.921 389.963 235.781 392.257 235.781Z" fill="#9EBFF5" stroke="#162020" stroke-width="1.8525" stroke-miterlimit="10"/>
<path d="M430.458 256.176H421.962V275.53H430.458V256.176Z" fill="#9EBFF5" stroke="#162020" stroke-width="1.8525" stroke-miterlimit="10"/>
<path d="M362.545 256.176H354.049V275.53H362.545V256.176Z" fill="#9EBFF5" stroke="#162020" stroke-width="1.8525" stroke-miterlimit="10"/>
<path d="M422.337 243.576H362.17V288.11H422.337V243.576Z" fill="#C4D8F6" stroke="#162020" stroke-width="1.8525" stroke-miterlimit="10"/>
<path d="M384.213 268.484C384.213 272.911 387.804 276.502 392.231 276.502C396.658 276.502 400.249 272.911 400.249 268.484H384.205H384.213Z" fill="#205BC0" stroke="#162020" stroke-width="1.8525" stroke-miterlimit="10"/>
<path d="M410.845 261.013C410.845 257.797 408.244 255.195 405.028 255.195C401.812 255.195 399.211 257.797 399.211 261.013" stroke="#162020" stroke-width="1.8525" stroke-miterlimit="10"/>
<path d="M385.287 261.013C385.287 257.797 382.686 255.195 379.47 255.195C376.254 255.195 373.653 257.797 373.653 261.013" stroke="#162020" stroke-width="1.8525" stroke-miterlimit="10"/>
<path d="M421.569 327.921C421.722 326.718 421.646 326.692 421.646 325.447C421.646 309.206 408.474 296.036 392.232 296.036C375.99 296.036 362.818 309.206 362.818 325.447C362.818 325.976 362.835 326.496 362.861 327.008C365.582 328.569 369.302 330.428 373.934 331.955C375.973 332.629 382.857 334.77 391.712 334.941C405.199 335.205 415.93 330.761 421.577 327.912L421.569 327.921Z" fill="#C4D8F6" stroke="#162020" stroke-width="1.8525" stroke-miterlimit="10"/>
</svg>
