<svg width="780" height="441" viewBox="0 0 780 441" fill="none" xmlns="http://www.w3.org/2000/svg">
<path d="M780 0.5H0V440.5H780V0.5Z" fill="#9EBFF5"/>
<path d="M511.7 440.7V103.4C511.7 86.7004 501.5 75.9004 485.3 75.9004H294.6C278.5 75.9004 268.2 86.7004 268.2 103.4V440.7" fill="white"/>
<path d="M511.7 440.7V103.4C511.7 86.7004 501.5 75.9004 485.3 75.9004H294.6C278.5 75.9004 268.2 86.7004 268.2 103.4V440.7" stroke="#162020" stroke-width="1.25" stroke-miterlimit="10"/>
<path d="M511.3 117.4V101.4C511.3 85.7 501.1 75.5 485 75.5H294.9C278.8 75.5 268.6 85.6 268.6 101.4V117.4C268.7 117.4 510.9 117 511.3 117.4Z" fill="#026661" stroke="#162020" stroke-width="1.25" stroke-miterlimit="10"/>
<path d="M375.7 98.2002H418" stroke="#162020" stroke-width="1.25" stroke-miterlimit="10" stroke-linecap="round" stroke-linejoin="round"/>
<path d="M365.7 102.2C367.743 102.2 369.4 100.588 369.4 98.6C369.4 96.6118 367.743 95 365.7 95C363.657 95 362 96.6118 362 98.6C362 100.588 363.657 102.2 365.7 102.2Z" fill="#EBF9EB" stroke="#162020" stroke-width="1.25" stroke-miterlimit="10"/>
<path d="M390 257.5C423.745 257.5 451.1 230.144 451.1 196.4C451.1 162.655 423.745 135.3 390 135.3C356.255 135.3 328.9 162.655 328.9 196.4C328.9 230.144 356.255 257.5 390 257.5Z" fill="#2BB656" stroke="#162020" stroke-width="1.2867" stroke-miterlimit="10"/>
<path d="M390 242.2C415.294 242.2 435.8 221.694 435.8 196.4C435.8 171.105 415.294 150.6 390 150.6C364.705 150.6 344.2 171.105 344.2 196.4C344.2 221.694 364.705 242.2 390 242.2Z" fill="white" stroke="#162020" stroke-width="1.2177" stroke-miterlimit="10"/>
<path d="M389.4 196.1C378.7 196.1 373.6 191.1 373.6 184.9C373.6 178.7 380.7 173.7 389.4 173.7C393.8 173.7 397.7 175 400.6 177C403.5 179 405.2 181.8 405.2 184.9" stroke="#162020" stroke-width="1.2867" stroke-miterlimit="10" stroke-linecap="round" stroke-linejoin="round"/>
<path d="M389.4 196.2C400.6 196.2 406.7 201.5 406.7 208.2C406.7 215.3 399 220.3 389.4 220.3C379.9 220.3 372.1 214.8 372.1 208.1" stroke="#162020" stroke-width="1.2867" stroke-miterlimit="10" stroke-linecap="round" stroke-linejoin="round"/>
<path d="M389.5 166V229.9" stroke="#162020" stroke-width="1.2867" stroke-miterlimit="10" stroke-linecap="round" stroke-linejoin="round"/>
<path d="M269.3 117.1H510.7" stroke="#162020" stroke-width="1.25" stroke-miterlimit="10" stroke-linecap="round" stroke-linejoin="round"/>
<path d="M231.9 339.001L234.2 337.601" stroke="#162020" stroke-width="1.25" stroke-linecap="round" stroke-linejoin="round"/>
<path d="M238.7 334.901L334.9 276.101" stroke="#162020" stroke-width="1.25" stroke-linecap="round" stroke-linejoin="round" stroke-dasharray="5.25 5.25"/>
<path d="M337.2 274.7L339.5 273.4L341.5 275" stroke="#162020" stroke-width="1.25" stroke-linecap="round" stroke-linejoin="round"/>
<path d="M345.7 278.4L385.7 310.1" stroke="#162020" stroke-width="1.25" stroke-linecap="round" stroke-linejoin="round" stroke-dasharray="5.38 5.38"/>
<path d="M387.8 311.801L389.9 313.501L392.2 312.001" stroke="#162020" stroke-width="1.25" stroke-linecap="round" stroke-linejoin="round"/>
<path d="M396.6 309.2L544.1 215.2" stroke="#162020" stroke-width="1.25" stroke-linecap="round" stroke-linejoin="round" stroke-dasharray="5.22 5.22"/>
<path d="M546.3 213.8L548.6 212.4" stroke="#162020" stroke-width="1.25" stroke-linecap="round" stroke-linejoin="round"/>
<path d="M357.4 312.5H328.9V416.6H357.4V312.5Z" fill="#FF9C5D" stroke="#162020" stroke-width="1.25" stroke-miterlimit="10"/>
<path d="M315 334.6H286.5V416.5H315V334.6Z" fill="#2BB656" stroke="#162020" stroke-width="1.25" stroke-miterlimit="10"/>
<path d="M402.3 338.3H373.8V416.6H402.3V338.3Z" fill="#2BB656" stroke="#162020" stroke-width="1.25" stroke-miterlimit="10"/>
<path d="M447.2 319H418.7V416.6H447.2V319Z" fill="#FF9C5D" stroke="#162020" stroke-width="1.25" stroke-miterlimit="10"/>
<path d="M491.1 290.9H462.6V416.6H491.1V290.9Z" fill="#2BB656" stroke="#162020" stroke-width="1.25" stroke-miterlimit="10"/>
<path d="M511.7 440.5V103.2C511.7 86.6004 501.5 75.9004 485.3 75.9004H294.6C278.5 75.9004 268.2 86.6004 268.2 103.2V440.5" stroke="#162020" stroke-width="1.25" stroke-miterlimit="10"/>
<path d="M268.4 162.3L220.5 213H316.3L268.4 162.3Z" fill="#59CB59" stroke="#162020" stroke-width="1.25" stroke-miterlimit="10"/>
<path d="M511.6 212.9L559.5 162.3H463.7L511.6 212.9Z" fill="#FF9C5D" stroke="#162020" stroke-width="1.25" stroke-miterlimit="10"/>
<path d="M357.4 359.7H328.9V416.6H357.4V359.7Z" fill="#026661" stroke="#162020" stroke-width="1.25" stroke-miterlimit="10"/>
<path d="M315 387.3H286.5V416.6H315V387.3Z" fill="#026661" stroke="#162020" stroke-width="1.25" stroke-miterlimit="10"/>
<path d="M402.3 395.6H373.8V416.6H402.3V395.6Z" fill="#026661" stroke="#162020" stroke-width="1.25" stroke-miterlimit="10"/>
<path d="M447.2 373.3H418.7V416.6H447.2V373.3Z" fill="#026661" stroke="#162020" stroke-width="1.25" stroke-miterlimit="10"/>
<path d="M491.1 317.3H462.6V416.6H491.1V317.3Z" fill="#026661" stroke="#162020" stroke-width="1.25" stroke-miterlimit="10"/>
<path d="M253.22 278H125V406.22H253.22V278Z" fill="#174DA7" stroke="#162020" stroke-width="1.5" stroke-miterlimit="10"/>
<path d="M196.14 359.14H182.09V375.23H196.14V359.14Z" fill="#9BBCF2" stroke="#162020" stroke-width="1.5" stroke-miterlimit="10"/>
<path d="M190.85 299.96H187.39V310.89H190.85V299.96Z" fill="#9BBCF2" stroke="#162020" stroke-width="1.5" stroke-miterlimit="10"/>
<path d="M189.12 300.01C191.815 300.01 194 297.825 194 295.13C194 292.435 191.815 290.25 189.12 290.25C186.425 290.25 184.24 292.435 184.24 295.13C184.24 297.825 186.425 300.01 189.12 300.01Z" fill="#9BBCF2" stroke="#162020" stroke-width="1.5" stroke-miterlimit="10"/>
<path d="M233.99 323.96H224.01V346.69H233.99V323.96Z" fill="#9BBCF2" stroke="#162020" stroke-width="1.5" stroke-miterlimit="10"/>
<path d="M154.22 323.96H144.24V346.69H154.22V323.96Z" fill="#9BBCF2" stroke="#162020" stroke-width="1.5" stroke-miterlimit="10"/>
<path d="M224.44 309.17H153.78V361.48H224.44V309.17Z" fill="#C1D5F3" stroke="#162020" stroke-width="1.5" stroke-miterlimit="10"/>
<path d="M179.67 338.42C179.67 343.62 183.89 347.84 189.09 347.84C194.29 347.84 198.51 343.62 198.51 338.42H179.66H179.67Z" fill="#205BBD" stroke="#162020" stroke-width="1.5" stroke-miterlimit="10"/>
<path d="M210.96 329.65C210.96 325.88 207.9 322.82 204.13 322.82C200.36 322.82 197.3 325.88 197.3 329.65" stroke="#162020" stroke-width="1.5" stroke-miterlimit="10"/>
<path d="M180.94 329.65C180.94 325.88 177.88 322.82 174.11 322.82C170.34 322.82 167.28 325.88 167.28 329.65" stroke="#162020" stroke-width="1.5" stroke-miterlimit="10"/>
<path d="M223.64 405.71C223.64 386.63 208.17 371.16 189.09 371.16C167.74 371.16 153.46 392.31 154.54 405.71C154.58 406.19 223.64 406.57 223.64 405.71Z" fill="#C1D5F3" stroke="#162020" stroke-width="1.5" stroke-miterlimit="10"/>
<path d="M539.001 223.84C539.102 203.941 555.316 187.899 575.215 188C595.114 188.102 611.156 204.316 611.055 224.214C610.992 236.174 605.106 246.728 596.105 253.239C596.097 253.239 587.346 260.444 587.315 267.111L562.202 266.978C562.202 266.978 563.419 259.804 553.646 253.012C544.715 246.416 538.938 235.791 539.001 223.84Z" fill="white" stroke="#040404" stroke-width="1.5" stroke-miterlimit="10"/>
<path d="M579.68 267.072L579.875 228.929L579.898 225.112C579.914 222.481 582.061 220.358 584.692 220.365H585.012C587.642 220.381 589.766 222.528 589.758 225.159C589.742 227.789 587.596 229.913 584.965 229.905L564.621 229.796C561.99 229.78 559.867 227.633 559.875 225.003C559.89 222.372 562.037 220.248 564.668 220.256C567.299 220.272 569.422 222.419 569.414 225.049L569.196 267.009" stroke="#040404" stroke-width="1.5" stroke-miterlimit="10"/>
<path d="M564.265 266.984L584.905 267.092C587.457 267.106 589.515 269.185 589.502 271.738L589.496 272.831C589.483 275.383 587.403 277.441 584.851 277.428L564.211 277.32C561.658 277.306 559.6 275.227 559.614 272.674L559.619 271.581C559.633 269.029 561.713 266.971 564.265 266.984Z" fill="#A1C2F8" stroke="#040404" stroke-width="1.5" stroke-linecap="round" stroke-linejoin="round"/>
<path d="M564.21 277.319L584.85 277.427C587.402 277.44 589.46 279.52 589.447 282.072L589.441 283.165C589.428 285.717 587.348 287.776 584.796 287.762L564.156 287.654C561.603 287.641 559.545 285.561 559.559 283.009L559.564 281.916C559.578 279.363 561.658 277.305 564.21 277.319Z" fill="#A1C2F8" stroke="#040404" stroke-width="1.5" stroke-linecap="round" stroke-linejoin="round"/>
<path d="M570.928 288.444C570.921 290.52 572.599 291.442 574.675 291.449C576.752 291.457 578.446 290.544 578.454 288.46" stroke="#040404" stroke-width="1.5" stroke-linecap="round" stroke-linejoin="round"/>
</svg>
